<?xml version="1.0" standalone="no"?>
<!DOCTYPE svg PUBLIC "-//W3C//DTD SVG 1.1//EN" "http://www.w3.org/Graphics/SVG/1.1/DTD/svg11.dtd" >
<svg xmlns="http://www.w3.org/2000/svg">
<metadata>
<json>
<![CDATA[
{
	"fontFamily": "iconfont",
	"majorVersion": 1,
	"minorVersion": 0,
	"description": "Font generated by IcoMoon.",
	"version": "Version 1.0",
	"fontId": "iconfont",
	"psName": "iconfont",
	"subFamily": "Regular",
	"fullName": "iconfont"
}
]]>
</json>
</metadata>
<defs>
<font id="iconfont" horiz-adv-x="1024">
<font-face units-per-em="1024" ascent="960" descent="-64" />
<missing-glyph horiz-adv-x="1024" />
<glyph unicode="&#x20;" horiz-adv-x="512" d="" />
<glyph unicode="&#x21;" glyph-name="alert" data-tags="alert" d="M509.724-64c-282.169 0-509.724 232.107-509.724 514.276s227.556 509.724 509.724 509.724 509.724-227.556 509.724-509.724c4.551-282.169-227.556-514.276-509.724-514.276zM509.724 868.978c-232.107 0-418.702-186.596-418.702-418.702s186.596-418.702 418.702-418.702c232.107 0 418.702 186.596 418.702 418.702s-186.596 418.702-418.702 418.702zM468.764 286.436c0 22.756 18.204 45.511 45.511 45.511s45.511-18.204 45.511-45.511c0-22.756-18.204-45.511-45.511-45.511s-45.511 22.756-45.511 45.511zM482.418 382.009l-13.653 295.822h81.92l-13.653-295.822h-54.613z" />
<glyph unicode="&#x23;" glyph-name="directory-hollow" data-tags="directory-hollow" d="M332.8 652.8h563.2c51.2 0 89.6 38.4 89.6 89.6s-38.4 89.6-83.2 89.6h-569.6c-44.8 0-83.2-38.4-83.2-89.6s38.4-89.6 83.2-89.6zM332.8 793.6h563.2c32 0 51.2-25.6 51.2-51.2 0-32-25.6-51.2-51.2-51.2h-563.2c-32 0-51.2 25.6-51.2 51.2s25.6 51.2 51.2 51.2zM902.4 230.4h-569.6c-51.2 0-89.6-38.4-89.6-89.6s38.4-89.6 89.6-89.6h563.2c51.2 0 89.6 38.4 89.6 89.6s-38.4 89.6-83.2 89.6zM902.4 89.6h-569.6c-32 0-51.2 25.6-51.2 51.2s25.6 51.2 51.2 51.2h563.2c32 0 51.2-25.6 51.2-51.2s-19.2-51.2-44.8-51.2zM902.4 531.2h-569.6c-51.2 0-89.6-38.4-89.6-89.6s38.4-89.6 89.6-89.6h563.2c51.2 0 89.6 38.4 89.6 89.6s-38.4 89.6-83.2 89.6zM902.4 390.4h-569.6c-32 0-51.2 25.6-51.2 51.2 0 32 25.6 51.2 51.2 51.2h563.2c32 0 51.2-25.6 51.2-51.2 6.4-32-19.2-51.2-44.8-51.2zM89.6 230.4c-51.2 0-89.6-38.4-89.6-89.6s38.4-89.6 89.6-89.6 89.6 38.4 89.6 89.6-44.8 89.6-89.6 89.6zM89.6 89.6c-32 0-51.2 25.6-51.2 51.2s19.2 51.2 51.2 51.2 51.2-25.6 51.2-51.2-25.6-51.2-51.2-51.2zM89.6 531.2c-51.2 0-89.6-38.4-89.6-89.6s38.4-89.6 89.6-89.6 89.6 38.4 89.6 89.6-44.8 89.6-89.6 89.6zM89.6 390.4c-32 0-51.2 25.6-51.2 51.2 0 32 25.6 51.2 51.2 51.2 32 0 51.2-25.6 51.2-51.2 0-32-25.6-51.2-51.2-51.2zM89.6 832c-51.2 0-89.6-38.4-89.6-89.6s38.4-89.6 89.6-89.6 89.6 38.4 89.6 89.6-44.8 89.6-89.6 89.6zM89.6 691.2c-32 0-51.2 25.6-51.2 51.2 0 32 25.6 51.2 51.2 51.2 32 0 51.2-25.6 51.2-51.2 0-32-25.6-51.2-51.2-51.2z" />
<glyph unicode="&#x24;" glyph-name="cabinet" data-tags="cabinet" horiz-adv-x="881" d="M330.532 700.759h220.354c19.443 0 32.405 19.443 32.405 38.886v58.329c0 12.962-6.481 19.443-19.443 19.443s-19.443-6.481-19.443-19.443v-51.848h-213.873v51.848c0 12.962-6.481 19.443-19.443 19.443s-19.443-6.481-19.443-19.443v-51.848c0-25.924 19.443-45.367 38.886-45.367zM842.532 960h-803.646c-19.443 0-38.886-19.443-38.886-38.886v-952.709c0-19.443 19.443-38.886 38.886-38.886h803.646c19.443 0 38.886 19.443 38.886 38.886v952.709c0 19.443-19.443 38.886-38.886 38.886zM842.532-31.595h-803.646v291.646h803.646v-291.646zM842.532 298.937h-803.646v291.646h803.646v-291.646zM842.532 629.468h-803.646v291.646h803.646v-291.646zM330.532 46.177h220.354c19.443 0 38.886 19.443 38.886 38.886v51.848c0 12.962-6.481 19.443-19.443 19.443s-19.443-6.481-19.443-19.443v-51.848h-220.354v51.848c0 12.962-6.481 19.443-19.443 19.443s-19.443-6.481-19.443-19.443v-51.848c0-25.924 19.443-38.886 38.886-38.886zM330.532 376.709h220.354c19.443 0 32.405 12.962 32.405 32.405v58.329c0 12.962-6.481 19.443-19.443 19.443s-19.443-6.481-19.443-19.443v-51.848h-213.873v51.848c0 12.962-6.481 19.443-19.443 19.443s-19.443-6.481-19.443-19.443v-51.848c0-25.924 19.443-38.886 38.886-38.886z" />
<glyph unicode="&#x25;" glyph-name="network" data-tags="network" d="M859.022 960c-91.022 0-164.978-73.956-164.978-164.978 0-85.333 62.578-153.6 147.911-164.978v-164.978h-164.978c-11.378 85.333-79.644 147.911-164.978 147.911s-153.6-62.578-164.978-147.911h-182.044c-11.378 0-17.067-5.689-17.067-17.067v-182.044c-85.333-11.378-147.911-79.644-147.911-164.978 0-91.022 73.956-164.978 164.978-164.978s164.978 73.956 164.978 164.978c0 85.333-62.578 153.6-147.911 164.978v164.978h164.978c11.378-79.644 79.644-147.911 164.978-147.911s153.6 62.578 164.978 147.911h182.044c11.378 0 17.067 5.689 17.067 17.067v182.044c85.333 11.378 147.911 79.644 147.911 164.978 0 91.022-73.956 164.978-164.978 164.978zM290.133 100.978c0-68.267-56.889-130.844-125.156-130.844s-125.156 56.889-125.156 130.844c0 68.267 56.889 125.156 125.156 125.156s125.156-56.889 125.156-125.156zM512 322.844c-68.267 0-125.156 56.889-125.156 125.156s56.889 125.156 125.156 125.156 130.844-56.889 130.844-125.156-62.578-125.156-130.844-125.156zM859.022 669.867c-68.267 0-125.156 56.889-125.156 125.156s56.889 125.156 125.156 125.156c68.267 0 130.844-56.889 130.844-125.156s-62.578-125.156-130.844-125.156z" />
<glyph unicode="&#x2a;" glyph-name="plus-rounded" data-tags="plus-rounded" d="M983.040 488.96h-430.080v430.080c0 20.48-20.48 40.96-40.96 40.96s-40.96-10.24-40.96-40.96v-430.080h-430.080c-30.72 0-40.96-20.48-40.96-40.96s20.48-40.96 40.96-40.96h430.080v-430.080c0-20.48 20.48-40.96 40.96-40.96s40.96 20.48 40.96 40.96v430.080h430.080c20.48 0 40.96 20.48 40.96 40.96s-10.24 40.96-40.96 40.96z" />
<glyph unicode="&#x2b;" glyph-name="plus" data-tags="plus" d="M1024 499.775h-460.225v460.225h-103.551v-460.225h-460.225v-103.551h460.225v-460.225h103.551v460.225h460.225z" />
<glyph unicode="&#x2c;" glyph-name="file" data-tags="file" horiz-adv-x="819" d="M512 960h-409.6c-61.44 0-102.4-40.96-102.4-102.4v-819.2c0-51.2 40.96-102.4 102.4-102.4h614.4c51.2 0 102.4 40.96 102.4 102.4v614.4l-307.2 307.2zM512 816.64l163.84-163.84h-163.84v163.84zM102.4 38.4v0 0 0 819.2h307.2v-204.8c0-61.44 51.2-102.4 102.4-102.4h204.8v-512h-614.4z" />
<glyph unicode="&#x2d;" glyph-name="minus" data-tags="minus" d="M1024 499.775v-115.056h-1024v115.056h1024z" />
<glyph unicode="&#x2e;" glyph-name="circle" data-tags="circle" d="M1024 448c0-282.77-229.23-512-512-512s-512 229.23-512 512c0 282.77 229.23 512 512 512s512-229.23 512-512z" />
<glyph unicode="&#x2f;" glyph-name="view-hidden" data-tags="view-hidden" d="M953.685 925.889l36.204-36.204-923.19-923.19-36.204 36.204 923.19 923.19zM604.16 540.16c0 51.2-40.96 92.16-92.16 92.16s-92.16-40.96-92.16-92.16 40.96-92.16 92.16-92.16l92.16 92.16zM614.4 345.6l-61.44-61.44c107.52 20.48 189.44 102.4 204.8 204.8l-61.44-61.44c-10.24-30.72-40.96-61.44-81.92-81.92zM291.84 540.16c0 40.96 10.24 76.8 30.72 107.52 61.44 20.48 128 35.84 189.44 35.84s128-15.36 189.44-35.84c0 0 0-5.12 5.12-5.12l30.72 30.72c-5.12 0-5.12 0-10.24 5.12v0h-5.12c-66.56 25.6-143.36 46.080-209.92 46.080s-143.36-20.48-209.92-46.080h-5.12c-163.84-66.56-296.96-179.2-296.96-230.4s128-158.72 286.72-225.28l25.6 25.6c-148.48 56.32-276.48 158.72-276.48 194.56s102.4 122.88 230.4 179.2c-5.12-20.48-10.24-51.2-10.24-81.92 0-92.16 51.2-174.080 128-220.16l25.6 25.6c-66.56 35.84-117.76 107.52-117.76 194.56zM870.4 601.6l-25.6-25.6c81.92-51.2 138.24-102.4 138.24-128 0-56.32-250.88-235.52-471.040-235.52-10.24 0-20.48 0-30.72 0l-30.72-30.72c20.48-5.12 40.96-5.12 66.56-5.12 235.52 0 512 199.68 512 276.48-5.12 30.72-66.56 92.16-158.72 148.48z" />
<glyph unicode="&#x30;" glyph-name="spin-down" data-tags="spin-down" d="M1024 704l-512-512-512 512z" />
<glyph unicode="&#x31;" glyph-name="spin-up" data-tags="spin-up" d="M0 192l512 512 512-512z" />
<glyph unicode="&#x3c;" glyph-name="left" data-tags="left" horiz-adv-x="1675" d="M1602.259 526.306h-1349.271l313.224 313.224c12.047 12.047 24.094 36.141 24.094 48.188 0 36.141-36.141 72.282-72.282 72.282-24.094 0-48.188-12.047-60.235-24.094l-433.694-433.694c-12.047-12.047-24.094-36.141-24.094-60.235s12.047-36.141 24.094-48.188l433.694-433.694c12.047-12.047 36.141-24.094 48.188-24.094 36.141 0 72.282 36.141 72.282 72.282 0 24.094-12.047 36.141-24.094 48.188l-301.176 313.224h1361.318c36.141 0 72.282 36.141 72.282 72.282-12.047 48.188-36.141 84.329-84.329 84.329z" />
<glyph unicode="&#x3d;" glyph-name="directory" data-tags="directory" horiz-adv-x="1012" d="M64 354.909c-34.909 0-64-29.091-64-64s29.091-64 64-64c34.909 0 64 29.091 64 64s-29.091 64-64 64zM64 64c-34.909 0-64-29.091-64-64s29.091-64 64-64c34.909 0 64 29.091 64 64s-29.091 64-64 64zM64 640c-34.909 0-64-29.091-64-64s29.091-64 64-64c34.909 0 64 29.091 64 64s-29.091 64-64 64zM285.091 866.909h692.364c17.455 0 29.091 11.636 29.091 29.091s-11.636 29.091-29.091 29.091h-692.364c-17.455 0-29.091-11.636-29.091-29.091s11.636-29.091 29.091-29.091zM983.273 320h-698.182c-17.455 0-29.091-11.636-29.091-29.091s11.636-29.091 29.091-29.091h692.364c17.455 0 29.091 11.636 29.091 29.091 5.818 17.455-5.818 29.091-23.273 29.091zM983.273 610.909h-698.182c-17.455 0-29.091-17.455-29.091-34.909s11.636-29.091 29.091-29.091h692.364c17.455 0 29.091 11.636 29.091 29.091s-5.818 34.909-23.273 34.909zM64 960c-34.909 0-64-29.091-64-64s29.091-64 64-64c34.909 0 64 29.091 64 64s-29.091 64-64 64zM983.273 34.909h-698.182c-17.455 0-29.091-11.636-29.091-29.091s11.636-29.091 29.091-29.091h692.364c17.455 0 29.091 11.636 29.091 29.091 5.818 11.636-5.818 29.091-23.273 29.091z" />
<glyph unicode="&#x3e;" glyph-name="right" data-tags="right" horiz-adv-x="1675" d="M1662.494 502.212l-433.694 433.694c-24.094 12.047-36.141 24.094-60.235 24.094-48.188 0-72.282-36.141-72.282-72.282 0-24.094 12.047-36.141 24.094-48.188l313.224-313.224h-1361.318c-36.141 0-72.282-36.141-72.282-84.329 0-36.141 36.141-72.282 72.282-72.282h1361.318l-313.224-313.224c-24.094-12.047-24.094-24.094-24.094-48.188 0-36.141 36.141-72.282 72.282-72.282 24.094 0 36.141 12.047 48.188 24.094l433.694 433.694c12.047 12.047 24.094 36.141 24.094 48.188 0 24.094 0 48.188-12.047 60.235z" />
<glyph unicode="&#x41;" glyph-name="sort-asc" data-tags="sort-asc" horiz-adv-x="1767" d="M140.549-64l803.137 803.137h-140.549l823.216-803.137 140.549 140.549-823.216 803.137-60.235 80.314-883.451-883.451z" />
<glyph unicode="&#x42;" glyph-name="lock" data-tags="lock" horiz-adv-x="788" d="M695.023 589.321h-46.381v115.953c0 140.673-114.076 254.726-254.795 254.726s-254.795-114.053-254.795-254.726c0 0 0 0 0-0.023v-115.93h-46.381c-51.177 0-92.67-41.493-92.67-92.67v-463.348c0-51.177 41.493-92.67 92.67-92.67h602.353c51.177 0 92.67 41.493 92.67 92.67v463.348c0 51.177-41.493 92.67-92.67 92.67zM431.967 233.871v-121.377c0-21.081-17.040-38.121-38.121-38.121-21.043 0-38.121 17.040-38.121 38.121v121.377c-44.297 15.744-76.242 57.639-76.242 107.349 0 63.128 51.196 114.363 114.363 114.363s114.363-51.235 114.363-114.363c0-49.748-31.945-91.605-76.242-107.349zM551.875 589.321h-316.058v87.801c0.158 87.117 70.834 157.669 158.020 157.669s157.863-70.553 158.020-157.669h0.018v-87.801z" />
<glyph unicode="&#x43;" glyph-name="calendar" data-tags="calendar" d="M859.429 850.286v109.714h-36.571v-109.714h-621.714v109.714h-36.571v-109.714h-164.571v-914.286h1024v914.286h-164.571zM987.429-27.429h-950.857v731.429h950.857v-731.429zM987.429 740.571h-950.857v73.143h128v-36.571h36.571v36.571h621.714v-36.571h36.571v36.571h128v-73.143zM914.286 411.429h-146.286v-146.286h146.286v146.286zM877.714 301.714h-73.143v73.143h73.143v-73.143zM914.286 630.857h-146.286v-146.286h146.286v146.286zM877.714 521.143h-73.143v73.143h73.143v-73.143zM475.429 630.857h-146.286v-146.286h146.286v146.286zM438.857 521.143h-73.143v73.143h73.143v-73.143zM475.429 192h-146.286v-146.286h146.286v146.286zM438.857 82.286h-73.143v73.143h73.143v-73.143zM475.429 411.429h-146.286v-146.286h146.286v146.286zM438.857 301.714h-73.143v73.143h73.143v-73.143zM256 192h-146.286v-146.286h146.286v146.286zM219.429 82.286h-73.143v73.143h73.143v-73.143zM694.857 192h-146.286v-146.286h146.286v146.286zM658.286 82.286h-73.143v73.143h73.143v-73.143zM694.857 411.429h-146.286v-146.286h146.286v146.286zM658.286 301.714h-73.143v73.143h73.143v-73.143zM694.857 630.857h-146.286v-146.286h146.286v146.286zM658.286 521.143h-73.143v73.143h73.143v-73.143zM256 411.429h-146.286v-146.286h146.286v146.286zM219.429 301.714h-73.143v73.143h73.143v-73.143z" />
<glyph unicode="&#x44;" glyph-name="download" data-tags="download" horiz-adv-x="866" d="M819.2 420.073c-9.309 0-27.927-9.309-37.236-18.618l-297.891-297.891v809.891c0 27.927-18.618 46.545-46.545 46.545s-46.545-18.618-46.545-46.545v-809.891l-307.2 307.2c-9.309 9.309-18.618 9.309-37.236 9.309-27.927 0-46.545-18.618-46.545-46.545 0-9.309 9.309-27.927 18.618-37.236l390.982-390.982c0 0 9.309-9.309 27.927-9.309s27.927 9.309 37.236 18.618l390.982 390.982c9.309 9.309 18.618 18.618 18.618 37.236-18.618 18.618-37.236 37.236-65.164 37.236z" />
<glyph unicode="&#x45;" glyph-name="expand" data-tags="expand" horiz-adv-x="807" d="M781.953 455.359h-756.707c-13.982 0-25.246-11.321-25.246-25.246s11.265-25.246 25.246-25.246h756.707c13.925 0 25.19 11.265 25.19 25.246 0.057 13.925-11.265 25.246-25.19 25.246zM25.246 909.508h756.707c13.925 0 25.19 11.265 25.19 25.246 0.057 13.982-11.265 25.246-25.19 25.246h-756.707c-13.982 0-25.246-11.265-25.246-25.246 0-13.925 11.265-25.246 25.246-25.246zM781.953 707.651h-756.707c-13.982 0-25.246-11.265-25.246-25.19 0-13.982 11.265-25.246 25.246-25.246h756.707c13.925 0 25.19 11.265 25.19 25.246 0.057 13.925-11.265 25.19-25.19 25.19zM375.297 404.866h56.606v-400.317h-56.606v400.317zM403.6-63.943l-294.067 226.367 34.53 44.888 259.538-199.819 259.538 199.819 34.473-44.888z" />
<glyph unicode="&#x47;" glyph-name="grip" data-tags="grip" horiz-adv-x="417" d="M135.45 894.984c0-37.926-32.508-65.016-65.016-65.016s-70.434 27.090-70.434 65.016c0 32.508 32.508 65.016 65.016 65.016s70.434-32.508 70.434-65.016zM135.45 596.995c0-37.926-32.508-65.016-65.016-65.016s-70.434 27.090-70.434 65.016c0 37.926 32.508 65.016 65.016 65.016s70.434-27.090 70.434-65.016zM135.45 299.005c0-37.926-32.508-65.016-65.016-65.016s-70.434 27.090-70.434 65.016c0 37.926 32.508 65.016 65.016 65.016s70.434-27.090 70.434-65.016zM135.45 6.434c0-37.926-32.508-65.016-65.016-65.016s-70.434 27.090-70.434 65.016c0 37.926 32.508 65.016 65.016 65.016s70.434-32.508 70.434-65.016zM417.185 894.984c0-37.926-32.508-65.016-65.016-65.016s-70.434 27.090-70.434 65.016c0 32.508 27.090 65.016 65.016 65.016s70.434-32.508 70.434-65.016zM417.185 596.995c0-37.926-32.508-65.016-65.016-65.016s-70.434 27.090-70.434 65.016c0 37.926 32.508 65.016 65.016 65.016s70.434-27.090 70.434-65.016zM417.185 299.005c0-37.926-32.508-65.016-65.016-65.016s-65.016 32.508-65.016 65.016c0 37.926 32.508 65.016 65.016 65.016s65.016-27.090 65.016-65.016zM417.185 6.434c0-37.926-32.508-65.016-65.016-65.016s-65.016 32.508-65.016 65.016c0 37.926 32.508 65.016 65.016 65.016s65.016-32.508 65.016-65.016z" />
<glyph unicode="&#x48;" glyph-name="help-rounded" data-tags="help-rounded" d="M512 960c-399.36 0-512-112.64-512-512s107.52-512 512-512 512 107.52 512 512-112.64 512-512 512zM512 84.48c-40.96 0-71.68 30.72-71.68 71.68s30.72 71.68 71.68 71.68c40.96 0 71.68-30.72 71.68-71.68s-30.72-71.68-71.68-71.68zM686.080 453.12l-56.32-40.96c-40.96-30.72-46.080-15.36-46.080-76.8v-30.72h-143.36v51.2c0 81.92 20.48 92.16 66.56 133.12l51.2 35.84c40.96 25.6 66.56 46.080 66.56 92.16 0 51.2-40.96 81.92-102.4 81.92-76.8-10.24-112.64-51.2-112.64-117.76v-25.6h-133.12v30.72c0 143.36 102.4 225.28 245.76 225.28 143.36-5.12 245.76-81.92 245.76-199.68 0-76.8-30.72-122.88-81.92-158.72z" />
<glyph unicode="&#x49;" glyph-name="info" data-tags="info" d="M508.092 592.611c15.634 0 31.267 7.817 46.901 15.634 15.634 15.634 15.634 31.267 15.634 46.901s-7.817 31.267-15.634 46.901c-15.634 7.817-31.267 15.634-46.901 15.634s-31.267-7.817-46.901-15.634c-7.817-15.634-15.634-31.267-15.634-46.901s7.817-31.267 15.634-46.901c15.634-15.634 31.267-15.634 46.901-15.634zM515.908 960c-289.221 0-515.908-226.687-515.908-515.908 0-281.405 226.687-515.908 515.908-515.908 281.405 0 515.908 226.687 515.908 515.908-7.817 289.221-234.504 515.908-515.908 515.908zM515.908-32.733c-265.771 0-476.824 211.053-476.824 476.824s211.053 476.824 476.824 476.824c265.771 0 476.824-211.053 476.824-476.824 0-257.954-218.87-476.824-476.824-476.824zM586.26 209.588c-7.817 0-7.817 7.817-15.634 15.634 0 7.817-7.817 15.634-7.817 23.45v281.405l-156.336-7.817v-31.267c7.817 0 15.634 0 23.45 0s15.634-7.817 15.634-7.817c7.817 0 7.817-7.817 15.634-15.634 0-7.817 7.817-15.634 7.817-23.45v-203.237c0-7.817 0-15.634-7.817-23.45s-7.817-7.817-15.634-15.634c0 0-7.817 0-15.634 0s-7.817 0-15.634 0v-23.45h203.237v23.45c-7.817 0-7.817 0-15.634 0s-7.817 7.817-15.634 7.817z" />
<glyph unicode="&#x4b;" glyph-name="key" data-tags="key" d="M259.16 814.617c-63.21 0-107.457-50.568-107.457-107.457 0-63.21 50.568-107.457 107.457-107.457s107.457 44.247 107.457 101.136c0 63.21-50.568 113.778-107.457 113.778zM259.16 631.309c-37.926 0-75.852 31.605-75.852 75.852 0 37.926 31.605 75.852 75.852 75.852s75.852-31.605 75.852-75.852c-6.321-44.247-37.926-75.852-75.852-75.852zM1024 144.593c0 0 0 0 0 0s0 0 0 0l-379.259 385.58c0 6.321 6.321 12.642 6.321 18.963s0 6.321 0 12.642 0 12.642 6.321 18.963c0 6.321 0 12.642 0 12.642 0 6.321 0 6.321 0 12.642 0 12.642 0 18.963 0 31.605 0 176.988-145.383 322.37-328.691 322.37s-328.691-145.383-328.691-328.691 145.383-328.691 328.691-328.691c12.642 0 18.963 0 31.605 0 6.321 0 6.321 0 12.642 0s12.642 0 18.963 0c6.321 0 12.642 0 18.963 6.321 6.321 0 6.321 0 12.642 0s12.642 6.321 18.963 6.321l158.025-158.025c0 0 6.321 0 6.321-6.321v0c0 0 6.321 0 6.321 0h82.173v-88.494c0-12.642 6.321-18.963 18.963-18.963h88.494v-88.494c0-12.642 6.321-18.963 18.963-18.963h183.309c12.642 0 18.963 6.321 18.963 18.963v183.309c0 0 0 0 0 6.321zM986.074-26.074h-145.383v88.494c0 12.642-6.321 18.963-18.963 18.963h-88.494v88.494c0 12.642-6.321 18.963-18.963 18.963h-101.136l-158.025 158.025c-6.321 6.321-12.642 12.642-18.963 12.642 0 0-6.321 0-6.321 0v0c-31.605-12.642-63.21-18.963-101.136-18.963-164.346 0-290.765 132.741-290.765 290.765 0 164.346 132.741 290.765 290.765 290.765 164.346 0 290.765-132.741 290.765-290.765 0-37.926-6.321-69.531-18.963-101.136v0c0 0 0-6.321 0-6.321 0-6.321 0-12.642 6.321-12.642v0l379.259-379.259v-158.025z" />
<glyph unicode="&#x4c;" glyph-name="lock-large" data-tags="lock-large" d="M522.24 335.36c-20.48 0-35.84-15.36-35.84-35.84s15.36-35.84 35.84-35.84c20.48 0 35.84 15.36 35.84 35.84s-20.48 35.84-35.84 35.84zM522.24 448c-81.92 0-148.48-66.56-148.48-148.48s66.56-148.48 148.48-148.48 148.48 66.56 148.48 148.48c-5.12 81.92-71.68 148.48-148.48 148.48zM522.24 192c-61.44 0-112.64 46.080-112.64 107.52s51.2 107.52 107.52 107.52 107.52-51.2 107.52-107.52c5.12-61.44-46.080-107.52-102.4-107.52zM778.24 555.52c0 0 0 5.12 0 0 0 5.12 0 5.12 0 0-15.36 15.36-25.6 25.6-40.96 35.84v148.48c0 122.88-97.28 220.16-215.040 220.16s-220.16-97.28-220.16-220.16v-148.48c-15.36-10.24-25.6-20.48-40.96-30.72v0 0c-66.56-71.68-107.52-158.72-107.52-261.12s40.96-194.56 107.52-261.12c66.56-61.44 158.72-102.4 261.12-102.4s194.56 40.96 261.12 107.52v0c66.56 66.56 107.52 158.72 107.52 261.12-5.12 97.28-46.080 184.32-112.64 250.88zM337.92 739.84c0 102.4 81.92 184.32 184.32 184.32s184.32-81.92 184.32-184.32v-122.88c-56.32 30.72-117.76 51.2-184.32 51.2s-128-20.48-184.32-51.2c0 0 0 122.88 0 122.88zM762.88 79.36l-61.44 61.44c-5.12 5.12-20.48 5.12-25.6 0s-5.12-20.48 0-25.6l61.44-61.44c-56.32-46.080-122.88-76.8-199.68-81.92v92.16c0 10.24-10.24 20.48-20.48 20.48s-20.48-10.24-20.48-20.48v-92.16c-76.8 5.12-148.48 35.84-199.68 81.92l61.44 61.44c5.12 5.12 5.12 20.48 0 25.6s-20.48 5.12-25.6 0l-61.44-61.44c-46.080 56.32-76.8 122.88-81.92 199.68h92.16c10.24 0 20.48 10.24 20.48 20.48s-10.24 20.48-20.48 20.48h-92.16c5.12 76.8 35.84 143.36 87.040 199.68l61.44-61.44c10.24-10.24 20.48-10.24 25.6 0 5.12 5.12 5.12 20.48 0 25.6l-61.44 61.44c56.32 46.080 122.88 76.8 199.68 81.92v-92.16c0-10.24 10.24-20.48 20.48-20.48s20.48 10.24 20.48 20.48v92.16c76.8-5.12 148.48-35.84 199.68-81.92l-61.44-61.44c-5.12-5.12-5.12-20.48 0-25.6s20.48-5.12 25.6 0l61.44 61.44c46.080-56.32 76.8-122.88 81.92-199.68h-92.16c-10.24 0-20.48-10.24-20.48-20.48s10.24-20.48 20.48-20.48h92.16c-5.12-71.68-35.84-143.36-87.040-199.68z" />
<glyph unicode="&#x4d;" glyph-name="walkthrough" data-tags="walkthrough" d="M317.44 371.2c-10.24 5.12-20.48 0-25.6-5.12-5.12-10.24-5.12-20.48 5.12-25.6s15.36-15.36 25.6-20.48c5.12-5.12 10.24-5.12 15.36-5.12s10.24 0 10.24 5.12 5.12 20.48 0 25.6c-10.24 10.24-20.48 15.36-30.72 25.6zM409.6 248.32c-5.12 10.24-10.24 20.48-15.36 30.72s-15.36 10.24-25.6 5.12c-10.24 0-15.36-10.24-10.24-20.48s10.24-20.48 15.36-30.72c5.12-5.12 10.24-10.24 15.36-10.24s5.12 0 10.24 0c10.24 5.12 15.36 15.36 10.24 25.6zM133.12 360.96c10.24 5.12 15.36 15.36 10.24 20.48-5.12 10.24-15.36 15.36-20.48 10.24-15.36-5.12-25.6-10.24-35.84-15.36s-10.24-15.36-5.12-25.6c5.12-5.12 10.24-10.24 15.36-10.24s5.12 0 10.24 5.12c5.12 10.24 15.36 15.36 25.6 15.36zM133.12 38.4c-5.12 5.12-20.48 5.12-25.6 0s-5.12-20.48 0-25.6c10.24-10.24 15.36-15.36 25.6-25.6 5.12-5.12 10.24-5.12 15.36-5.12s10.24 0 15.36 5.12 5.12 20.48 0 25.6c-15.36 10.24-20.48 20.48-30.72 25.6zM240.64 401.92c-15.36 0-25.6 5.12-35.84 5.12s-20.48-5.12-20.48-15.36 5.12-20.48 15.36-20.48 20.48 0 30.72-5.12v0 0c15.36-5.12 25.6 5.12 25.6 15.36 0 5.12-5.12 15.36-15.36 20.48zM61.44 115.2c-5.12 10.24-15.36 10.24-25.6 5.12s-10.24-15.36-5.12-25.6 15.36-20.48 25.6-30.72c5.12-5.12 10.24-5.12 15.36-5.12s10.24 0 10.24 5.12 10.24 20.48 0 25.6c-10.24 10.24-15.36 20.48-20.48 25.6zM25.6 263.68v0c10.24 0 20.48 5.12 20.48 10.24 5.12 10.24 10.24 20.48 15.36 30.72s0 20.48-5.12 25.6c-10.24 5.12-20.48 0-25.6-5.12-5.12-10.24-10.24-25.6-15.36-35.84-5.12-15.36 0-25.6 10.24-25.6zM35.84 176.64c0 5.12 0 5.12 0 10.24s0 15.36 0 25.6-5.12 20.48-15.36 20.48c-10.24-5.12-20.48-15.36-20.48-20.48 0-10.24 0-20.48 0-25.6s0-10.24 0-10.24c0-10.24 10.24-15.36 20.48-15.36v0c10.24-5.12 15.36 5.12 15.36 15.36zM768 284.16c-10.24 0-20.48-5.12-20.48-15.36 0-5.12 0-20.48-5.12-35.84 0-10.24 5.12-20.48 15.36-20.48v0c10.24 0 15.36 5.12 20.48 15.36 0 15.36 5.12 30.72 5.12 35.84 5.12 10.24-5.12 20.48-15.36 20.48zM624.64 601.6c5.12-10.24 10.24-15.36 20.48-15.36 5.12 0 10.24 5.12 10.24 10.24l40.96 71.68 76.8-40.96c5.12 0 10.24-5.12 15.36 0 10.24 5.12 15.36 10.24 15.36 20.48 0 5.12-5.12 10.24-10.24 10.24l-71.68 40.96 40.96 71.68c0 5.12 5.12 10.24 0 15.36-5.12 10.24-10.24 15.36-20.48 15.36-5.12 0-10.24-5.12-10.24-10.24l-40.96-71.68-76.8 46.080c-5.12 0-10.24 5.12-15.36 0-10.24-5.12-15.36-10.24-15.36-20.48 0-5.12 5.12-10.24 10.24-10.24v0l71.68-40.96-40.96-71.68c0-10.24 0-15.36 0-20.48zM440.32 181.76c-5.12 10.24-15.36 15.36-25.6 10.24s-15.36-15.36-10.24-25.6 10.24-20.48 15.36-35.84c5.12-5.12 10.24-10.24 15.36-10.24s5.12 0 10.24 0c10.24 5.12 15.36 15.36 10.24 25.6-5.12 15.36-10.24 25.6-15.36 35.84zM752.64 176.64c-10.24 5.12-20.48 0-20.48-10.24-5.12-10.24-5.12-20.48-10.24-30.72s0-20.48 10.24-25.6h5.12c5.12 0 15.36 5.12 15.36 10.24 5.12 10.24 10.24 25.6 15.36 35.84 0 10.24-5.12 20.48-15.36 20.48zM1018.88 755.2c-51.2 179.2-153.6 199.68-389.12 168.96-204.8-25.6-296.96-153.6-256-327.68 35.84-133.12 128-184.32 276.48-168.96l15.36 35.84c-138.24-15.36-225.28 25.6-256 143.36-35.84 148.48 40.96 256 225.28 281.6 209.92 25.6 296.96 10.24 343.040-143.36 30.72-97.28-51.2-199.68-174.080-245.76l30.72-25.6c133.12 56.32 215.040 174.080 184.32 281.6zM844.8 401.92v0l-97.28 87.040c-5.12 5.12-10.24 5.12-15.36 5.12s-10.24-5.12-10.24-10.24v0l-40.96-122.88c0-5.12 0-5.12 0-10.24 5.12-10.24 10.24-15.36 20.48-15.36l143.36 35.84c10.24 5.12 15.36 10.24 15.36 20.48-10.24 5.12-10.24 10.24-15.36 10.24zM721.92 376.32l20.48 66.56 51.2-46.080-71.68-20.48zM491.52 89.6c-5.12 10.24-15.36 10.24-25.6 5.12s-10.24-15.36-5.12-25.6c10.24-10.24 15.36-20.48 25.6-30.72 5.12-5.12 10.24-5.12 10.24-5.12 5.12 0 10.24 0 15.36 5.12s5.12 20.48 0 25.6c-5.12 10.24-15.36 15.36-20.48 25.6zM686.080 79.36c-5.12-10.24-15.36-15.36-25.6-20.48s-10.24-15.36-5.12-25.6c5.12-5.12 10.24-10.24 15.36-10.24s5.12 0 10.24 5.12c10.24 5.12 20.48 15.36 30.72 25.6 5.12 5.12 5.12 20.48 0 25.6-10.24 5.12-20.48 5.12-25.6 0zM599.040 38.4c-10.24 0-20.48 0-30.72 0s-20.48-5.12-20.48-15.36c0-10.24 5.12-20.48 15.36-20.48 5.12 0 15.36 0 25.6 0 5.12 0 10.24 0 15.36 0 10.24 0 15.36 10.24 15.36 20.48s-10.24 15.36-20.48 15.36z" />
<glyph unicode="&#x4e;" glyph-name="pin" data-tags="pin" horiz-adv-x="515" d="M474.201 815.678c20.617 0 34.362 13.745 34.362 34.362v75.597c6.872 20.617-13.745 34.362-34.362 34.362h-439.839c-20.617 0-34.362-13.745-34.362-34.362v-75.597c0-20.617 13.745-34.362 34.362-34.362h75.597v-343.624l-103.087-103.087c-6.872-6.872-6.872-6.872-6.872-13.745s6.872-20.617 20.617-20.617h219.919v-350.497l20.617-54.98 13.745 61.852v343.624h219.919c6.872 0 20.617 6.872 20.617 20.617 0 6.872 0 6.872-6.872 13.745l-103.087 103.087v343.624h68.725zM446.711 375.839h-384.859l75.597 75.597c0 0 6.872 6.872 6.872 13.745v350.497h219.919v-350.497c0-6.872 0-6.872 6.872-13.745l75.597-75.597zM34.362 925.638h439.839v-75.597h-439.839v75.597z" />
<glyph unicode="&#x4f;" glyph-name="circle-o" data-tags="circle-o" d="M512 802.462c196.923 0 354.462-157.538 354.462-354.462s-157.538-354.462-354.462-354.462-354.462 157.538-354.462 354.462 157.538 354.462 354.462 354.462zM512 960c-283.569 0-512-228.431-512-512s228.431-512 512-512 512 228.431 512 512-228.431 512-512 512v0z" />
<glyph unicode="&#x50;" glyph-name="spinner" data-tags="spinner" d="M512-64c136.8 0 265.4 53.2 362 150 96.8 96.8 150 225.2 150 362 0 96.8-27.2 191.2-78.6 272.6-50 79.2-120.6 143.4-204.4 185.2l-43-85.6c68-34 125.4-86.2 166.2-150.6 41.8-66.4 63.8-143 63.8-221.6 0-229.4-186.6-416-416-416s-416 186.6-416 416c0 78.6 22 155.2 63.8 221.4 40.6 64.6 98.2 116.6 166.2 150.8l-43 85.8c-83.6-42-154.4-106-204.4-185.4-51.4-81.4-78.6-175.8-78.6-272.6 0-136.8 53.2-265.4 150-362 96.6-96.8 225.2-150 362-150z" />
<glyph unicode="&#x53;" glyph-name="settings" data-tags="settings" horiz-adv-x="917" d="M684.552 496.088h-452.597c-130.122 0-231.956 107.492-231.956 231.956s101.834 231.956 231.956 231.956h452.597c130.122 0 231.956-101.834 231.956-231.956s-101.834-231.956-231.956-231.956zM231.956 920.398c-101.834 0-186.696-84.862-186.696-186.696s84.862-186.696 186.696-186.696h452.597c101.834 0 186.696 84.862 186.696 186.696s-79.204 186.696-186.696 186.696h-452.597zM379.050 733.702c0-81.238-65.856-147.094-147.094-147.094s-147.094 65.856-147.094 147.094c0 81.238 65.856 147.094 147.094 147.094s147.094-65.856 147.094-147.094zM684.552-64h-452.597c-130.122 0-231.956 101.834-231.956 231.956s101.834 226.298 231.956 226.298h452.597c130.122 0 231.956-101.834 231.956-231.956s-101.834-226.298-231.956-226.298zM231.956 354.652c-101.834 0-186.696-84.862-186.696-186.696s84.862-186.696 186.696-186.696h452.597c101.834 0 186.696 84.862 186.696 186.696s-84.862 186.696-186.696 186.696h-452.597zM831.646 162.298c0-81.238-65.856-147.094-147.094-147.094s-147.094 65.856-147.094 147.094c0 81.238 65.856 147.094 147.094 147.094s147.094-65.856 147.094-147.094z" />
<glyph unicode="&#x54;" glyph-name="thumb" data-tags="thumb" d="M972.8 212.48c-5.12 25.6-15.36 46.080-25.6 56.32 30.72 30.72 30.72 71.68 30.72 97.28 0 46.080-15.36 81.92-56.32 102.4 15.36 51.2 0 87.040-30.72 102.4-46.080 20.48-97.28 15.36-158.72 0-51.2-10.24-107.52-20.48-153.6-15.36-30.72 5.12-40.96 15.36-40.96 15.36-5.12 10.24 10.24 40.96 25.6 66.56 25.6 46.080 56.32 107.52 56.32 174.080 0 92.16-56.32 148.48-112.64 148.48-35.84 0-66.56-25.6-66.56-76.8 0-87.040-46.080-138.24-189.44-286.72-61.44-61.44-87.040-107.52-102.4-138.24-20.48-40.96-51.2-51.2-102.4-51.2v0c-10.24 0-20.48-10.24-20.48-20.48s10.24-20.48 20.48-20.48v0 0c71.68 10.24 107.52 30.72 133.12 81.92 15.36 30.72 35.84 71.68 97.28 128 148.48 148.48 199.68 204.8 199.68 312.32 0 20.48 10.24 35.84 30.72 35.84 30.72 0 76.8-35.84 76.8-112.64 0-56.32-30.72-112.64-51.2-153.6s-40.96-71.68-25.6-102.4c10.24-25.6 46.080-35.84 71.68-35.84 51.2-10.24 112.64 5.12 163.84 15.36 56.32 10.24 102.4 25.6 128 5.12 40.96-30.72 15.36-92.16 15.36-92.16s56.32-10.24 56.32-81.92c0-25.6 0-56.32-30.72-76.8l-20.48-20.48 25.6-15.36c0 0 20.48-15.36 25.6-46.080 5.12-25.6-20.48-61.44-51.2-97.28l-5.12-10.24 5.12-10.24c0 0 25.6-25.6 10.24-51.2s-76.8-66.56-276.48-66.56c-189.44 0-266.24 10.24-337.92 35.84-61.44 20.48-117.76 35.84-240.64 35.84v0c-10.24 0-20.48-5.12-20.48-15.36s10.24-15.36 15.36-20.48v0c117.76 0 174.080-10.24 230.4-30.72 71.68-25.6 148.48-40.96 348.16-40.96 163.84 0 276.48 25.6 307.2 87.040 20.48 35.84-5.12 56.32-10.24 71.68 40.96 46.080 66.56 81.92 56.32 117.76z" />
<glyph unicode="&#x55;" glyph-name="users" data-tags="users" horiz-adv-x="1183" d="M109.641 279.976c8.637 5.448 17.772 11.185 27.364 17.584 12.365 8.244 23.199 13.959 32.749 19.015 26.846 14.189 56.38 31.835 56.38 87.95 0 57.519-8.637 62.387-23.758 87.595-9.195 15.328-18.435 47.123-18.435 86.397 0 53.832 15.512 118.043 77.134 118.043s89.459-64.211 89.459-118.065c0-39.274-6.651-71.069-15.868-86.397-15.121-25.208-26.346-30.057-26.346-87.595 0-40.35 11.266-60.068 28.521-73.221 17.687 6.38 20.858 9.654 40.949 14.891-23.428 21.623-28.044 23.694-28.044 58.33 0 101.472 42.214 72.496 42.214 173.969 0.022 159.513-116.386 159.513-130.885 159.513s-118.605 0-118.605-159.491c0-101.472 42.214-72.496 42.214-173.969 0.022-43.52-20.96-39.378-70.655-72.519-70.384-46.874-95.302-57.997-95.302-173.99h120.943c5.427 14.644 12.302 28.314 20.051 41.426h-97.019c6.525 42.11 5.593 54.538 46.938 80.533zM867.971 282.295c-124.279 62.14-165.705 41.426-165.705 103.566 0 144.992 62.14 103.566 62.14 248.558 0 227.845-144.992 227.845-165.705 227.845s-165.705 0-165.705-227.845c0-144.992 62.14-103.566 62.14-248.558 0-62.14-41.426-41.426-165.705-103.566-108.020-53.998-165.705-82.853-165.705-248.558h869.951c0 165.705-57.686 194.56-165.705 248.558zM206.538 75.164c7.79 103.277 48.739 123.739 141.408 170.077 42.192 21.128 73.554 31.835 98.761 40.453 46.231 15.823 89.854 30.759 89.854 100.17 0 83.97-19.637 116.719-36.973 145.592-14.063 23.428-25.167 41.944-25.167 102.966 0 162.206 77.882 186.418 124.279 186.418 46.42 0 124.279-24.212 124.279-186.418 0-61.023-11.104-79.539-25.167-102.966-17.337-28.873-36.973-61.622-36.973-145.592 0-69.412 43.624-84.343 89.854-100.17 25.208-8.618 56.547-19.344 98.761-40.453 92.692-46.334 133.622-66.8 141.408-170.077h-784.323zM1084.050 332.006c-49.712 33.141-70.695 28.976-70.695 72.496 0 101.472 42.214 72.496 42.214 173.969 0 159.491-104.084 159.491-118.605 159.491s-130.885 0-130.885-159.491c0-101.472 42.214-72.496 42.214-173.969 0-34.654-4.619-36.703-28.044-58.33 20.092-5.241 23.261-8.515 40.949-14.891 17.254 13.153 28.521 32.871 28.521 73.221 0 57.519-11.226 62.387-26.346 87.595-9.195 15.328-15.868 47.123-15.868 86.397 0 53.877 27.837 118.065 89.459 118.065s77.179-64.211 77.179-118.065c0-39.274-9.24-71.069-18.457-86.397-15.121-25.208-23.758-30.057-23.758-87.595 0-56.11 29.539-73.779 56.403-87.95 9.528-5.052 20.361-10.771 32.727-19.015 9.609-6.399 18.723-12.14 27.364-17.584 41.345-25.995 40.391-38.401 46.938-80.533h-97.019c7.745-13.112 14.625-26.783 20.051-41.426h120.943c-0.022 116.016-24.937 127.138-95.281 174.013z" />
<glyph unicode="&#x56;" glyph-name="view" data-tags="view" horiz-adv-x="1911" d="M1358.507 874.667c0 0 0 0 0 0-3.413 0-6.827 3.413-10.24 3.413-126.293 47.787-262.827 81.92-392.533 81.92s-266.24-34.133-392.533-81.92c-3.413 0-6.827-3.413-10.24-3.413 0 0 0 0 0 0-303.787-119.467-552.96-331.093-552.96-426.667 0-136.533 512-512 955.733-512s955.733 375.467 955.733 512c0 95.573-249.173 307.2-552.96 426.667zM600.747 820.053c112.64 44.373 235.52 71.68 354.987 71.68s242.347-27.307 354.987-71.68c34.133-58.027 54.613-129.707 54.613-201.387 0-225.28-184.32-409.6-409.6-409.6s-409.6 184.32-409.6 409.6c0 75.093 20.48 143.36 54.613 201.387zM955.733 4.267c-409.6 0-880.64 341.333-880.64 443.733 0 64.853 191.147 225.28 433.493 334.507-20.48-51.2-30.72-105.813-30.72-163.84 0-262.827 215.040-477.867 477.867-477.867s477.867 215.040 477.867 477.867c0 58.027-10.24 112.64-30.72 163.84 245.76-109.227 433.493-269.653 433.493-334.507 0-102.4-471.040-443.733-880.64-443.733zM955.733 448c95.573 0 170.667 75.093 170.667 170.667s-75.093 170.667-170.667 170.667c-95.573 0-170.667-75.093-170.667-170.667s75.093-170.667 170.667-170.667z" />
<glyph unicode="&#x57;" glyph-name="wand" data-tags="wand" d="M1017.56 71.245l-592.503 592.503c-12.881 12.881-57.962 0-90.164-38.642s-51.522-77.283-38.642-90.164l592.503-592.503c12.881-12.881 57.962 0 90.164 38.642 38.642 32.201 51.522 77.283 38.642 90.164zM534.541 425.459c-19.321-19.321-32.201-45.082-25.761-51.522v0 0l-173.887 173.887c-6.44 6.44 6.44 25.761 25.761 51.522 25.761 19.321 45.082 32.201 51.522 25.761l173.887-173.887c-6.44 6.44-32.201-6.44-51.522-25.761zM586.063 451.22v0 0 0zM495.899 702.39l12.881 45.082 45.082 12.881-45.082 12.881-12.881 38.642-12.881-38.642-45.082-12.881 45.082-12.881 12.881-45.082zM714.868 702.39l25.761 96.604 103.044 32.201-96.604 25.761-32.201 103.044-25.761-96.604-103.044-32.201 96.604-25.761 32.201-103.044zM238.289 779.673l19.321 70.843 70.843 19.321-70.843 19.321-19.321 70.843-19.321-70.843-70.843-19.321 70.843-19.321 19.321-70.843zM727.748 599.346l-70.843-25.761 70.843-19.321 19.321-70.843 25.761 70.843 70.843 19.321-70.843 25.761-19.321 70.843-25.761-70.843zM347.774 264.453l-12.881-45.082-45.082-12.881 45.082-12.881 12.881-45.082 12.881 45.082 45.082 12.881-45.082 12.881-12.881 45.082zM167.447 464.101l-25.761-83.723-83.723-25.761 83.723-25.761 25.761-83.723 25.761 83.723 83.723 25.761-90.164 25.761-19.321 83.723zM64.403 637.987l45.082 12.881-45.082 12.881-6.44 38.642-12.881-38.642-45.082-12.881 45.082-12.881 12.881-45.082 6.44 45.082z" />
<glyph unicode="&#x58;" glyph-name="clear" data-tags="clear" d="M963.926-64.298l-963.793 963.793 60.298 60.298 963.793-963.793-60.298-60.298zM60.187-64.053l-60.298 60.298 963.793 963.793 60.298-60.298-963.793-963.793z" />
<glyph unicode="&#x59;" glyph-name="expand-arrow" data-tags="expand-arrow" horiz-adv-x="1759" d="M879.817-64l-879.817 882.271 142.107 141.729 737.522-739.597 737.144 739.597 142.296-141.729-879.251-882.271z" />
<glyph unicode="&#x5e;" glyph-name="close-arrow" data-tags="close-arrow" horiz-adv-x="1759" d="M879.428 719.227l466.162-467.439-75.335-75.123-390.827 391.892-390.613-391.894-75.439 75.123z" />
<glyph unicode="&#x5f;" glyph-name="minus-rounded" data-tags="minus-rounded" d="M972.8 499.2h-931.84c-20.48 0-40.96-20.48-40.96-40.96s20.48-40.96 40.96-40.96h942.080c20.48 0 40.96 20.48 40.96 40.96s-20.48 40.96-51.2 40.96z" />
<glyph unicode="&#x61;" glyph-name="account" data-tags="account" d="M512 960c-281.369 0-512-230.631-512-512s230.631-512 512-512c281.369 0 512 230.631 512 512s-230.631 512-512 512zM839.495 115.892c-73.802 73.802-170.667 106.090-189.117 110.703-55.351 46.126-32.288 96.865 9.225 166.054 4.613 9.225 13.838 23.063 18.45 32.288 27.676 59.964 23.063 96.865 18.45 110.703 9.225 41.514 23.063 156.829-36.901 221.405-36.901 36.901-87.64 50.739-152.216 32.288-69.189 0-119.928-23.063-152.216-64.577-55.351-73.802-27.676-179.892-18.45-207.568-13.838-50.739 13.838-87.64 23.063-96.865s87.64-124.541 18.45-193.73l-23.063-9.225c-78.414-32.288-129.153-59.964-170.667-96.865-87.64 83.027-138.378 198.342-138.378 327.495 0 258.306 207.568 465.874 465.874 465.874s465.874-207.568 465.874-465.874c0-129.153-55.351-244.468-138.378-332.108z" />
<glyph unicode="&#x62;" glyph-name="badge" data-tags="badge" d="M875.52 345.6h-250.88v-35.84h250.88v35.84zM455.68 637.44h107.52c10.24 0 20.48 10.24 20.48 20.48v179.2c0 10.24-10.24 20.48-20.48 20.48h-107.52c-10.24 0-20.48-10.24-20.48-20.48v-184.32c5.12-10.24 10.24-15.36 20.48-15.36zM476.16 816.64h71.68v-71.68h-71.68v71.68zM476.16 709.12h71.68v-35.84h-71.68v35.84zM875.52 238.080v35.84h-215.040v-35.84h215.040zM875.52 494.080h-286.72v-35.84h286.72v35.84zM276.48 483.84c0-51.2 25.6-87.040 51.2-102.4-20.48-97.28-179.2-25.6-179.2-158.72 0-10.24 10.24-20.48 20.48-20.48h399.36c10.24 0 20.48 10.24 20.48 20.48 0 133.12-158.72 66.56-179.2 158.72 25.6 15.36 51.2 51.2 51.2 102.4-5.12 61.44-40.96 117.76-92.16 117.76s-92.16-56.32-92.16-117.76zM983.040 744.96h-343.040c-10.24 0-20.48-10.24-20.48-20.48s10.24-20.48 20.48-20.48h343.040v-614.4h-942.080v614.4h343.040c10.24 0 20.48 10.24 20.48 20.48s-10.24 20.48-20.48 20.48h-343.040c-20.48 0-35.84-15.36-35.84-35.84v-614.4c0-20.48 15.36-35.84 35.84-35.84h936.96c20.48 0 35.84 15.36 35.84 35.84v614.4c5.12 20.48-10.24 35.84-30.72 35.84zM875.52 417.28h-286.72v-35.84h286.72v35.84zM875.52 565.76h-286.72v-35.84h286.72v35.84z" />
<glyph unicode="&#x63;" glyph-name="collapse" data-tags="collapse" horiz-adv-x="984" d="M30.763 898.474h922.055c16.968 0 30.763 13.726 30.763 30.763s-13.795 30.763-30.763 30.763h-922.055c-16.968 0-30.763-13.726-30.763-30.763s13.795-30.763 30.763-30.763zM952.818-2.474h-922.055c-16.968 0-30.763-13.795-30.763-30.763 0-17.037 13.795-30.763 30.763-30.763h922.055c16.968 0 30.763 13.726 30.763 30.763 0 16.968-13.795 30.763-30.763 30.763zM457.234 670.858h68.975v-718.304h-68.975v718.304zM208.028 450.483l-42.144 54.628 325.906 250.93 325.837-250.93-42.075-54.628-283.762 218.512z" />
<glyph unicode="&#x64;" glyph-name="delete" data-tags="delete" horiz-adv-x="841" d="M280.487 74.017c13.357 0 22.261 13.357 22.261 26.713l-22.261 556.522c0 13.357-13.357 22.261-26.713 22.261s-22.261-13.357-22.261-26.713l22.261-560.974c4.452-8.904 13.357-17.809 26.713-17.809zM814.748 821.983h-186.991v44.522c0 53.426-40.070 93.496-93.496 93.496h-231.513c-48.974 0-93.496-40.070-93.496-93.496v-44.522h-186.991c-13.357 0-22.261-13.357-22.261-26.713s8.904-22.261 22.261-22.261h22.261l44.522-747.965c4.452-48.974 44.522-89.043 97.948-89.043h467.478c53.426 0 93.496 40.070 93.496 93.496l44.522 747.965h22.261c13.357 0 22.261 8.904 22.261 22.261s-8.904 22.261-22.261 22.261zM258.226 866.504c0 26.713 22.261 44.522 44.522 44.522h231.513c26.713 0 44.522-22.261 44.522-44.522v-44.522h-320.557v44.522zM698.991 25.043c0-26.713-22.261-44.522-44.522-44.522h-467.478c-26.713 0-44.522 22.261-44.522 44.522l-44.522 747.965h654.47l-53.426-747.965zM556.522 74.017c13.357 0 22.261 8.904 26.713 22.261l22.261 556.522c0 13.357-8.904 22.261-22.261 26.713-13.357 0-22.261-8.904-26.713-22.261l-22.261-560.974c0-8.904 13.357-22.261 22.261-22.261zM418.504 74.017c13.357 0 22.261 8.904 22.261 22.261v560.974c0 13.357-8.904 22.261-22.261 22.261s-22.261-8.904-22.261-22.261v-560.974c0-13.357 8.904-22.261 22.261-22.261z" />
<glyph unicode="&#x65;" glyph-name="edit" data-tags="edit" d="M93.091 264.556l235.465-235.465 531.166 531.166-235.465 235.465-531.166-531.166zM772.107 943.572l-98.567-98.567 235.465-235.465 98.567 98.567c32.856 32.856 0 65.711 0 65.711l-164.278 164.278c0 5.476-38.332 38.332-71.187 5.476zM49.283 220.749l-49.283-284.749 284.749 49.283-235.465 235.465z" />
<glyph unicode="&#x66;" glyph-name="filter" data-tags="filter" d="M506.88 960c-281.6 0-506.88-61.44-506.88-143.36 0-143.36 435.2-506.88 435.2-506.88v-332.8c0-20.48 20.48-40.96 40.96-40.96h71.68c20.48 0 40.96 20.48 40.96 40.96v332.8c0 0 435.2 363.52 435.2 506.88-10.24 71.68-235.52 143.36-517.12 143.36zM547.84 320v-343.040h-81.92v353.28c0 0-322.56 271.36-414.72 424.96 92.16-51.2 261.12-81.92 455.68-81.92s363.52 30.72 445.44 71.68c-92.16-158.72-404.48-424.96-404.48-424.96zM506.88 698.88c-261.12 0-476.16 51.2-476.16 112.64s215.040 112.64 476.16 112.64 476.16-51.2 476.16-112.64-220.16-112.64-476.16-112.64z" />
<glyph unicode="&#x67;" glyph-name="cog" data-tags="cog" d="M514.473 628.56c-98.937 0-183.034-84.097-183.034-183.034s84.097-183.034 183.034-183.034 183.034 84.097 183.034 183.034c0 103.884-84.097 183.034-183.034 183.034zM514.473 302.068c-79.15 0-148.406 64.309-148.406 148.406 0 79.15 64.309 148.406 148.406 148.406s148.406-64.309 148.406-148.406c-4.947-84.097-69.256-148.406-148.406-148.406zM1014.106 519.729v0l-133.565 39.575c-9.894 24.734-19.787 49.469-29.681 74.203l64.309 118.725c4.947 4.947 4.947 14.841-4.947 19.787l-79.15 79.15c-4.947 4.947-14.841 4.947-19.787 4.947v0l-118.725-64.309c-24.734 14.841-44.522 24.734-74.203 29.681l-39.575 133.565c0 9.894-9.894 14.841-14.841 14.841h-103.884c-9.894-9.894-14.841-14.841-19.787-24.734v0l-39.575-128.618c-19.787-9.894-44.522-19.787-64.309-29.681l-123.671 64.309c-4.947 4.947-14.841 4.947-24.734 0l-79.15-79.15c-4.947-9.894-4.947-19.787 0-24.734v0l64.309-123.671c-9.894-19.787-19.787-39.575-29.681-64.309l-128.618-39.575c-9.894 0-14.841-4.947-14.841-14.841v-113.778c0-9.894 4.947-14.841 14.841-19.787v0l133.565-39.575c4.947-24.734 14.841-44.522 24.734-64.309l-64.309-123.671c-4.947-4.947-4.947-14.841 4.947-19.787l79.15-79.15c4.947-4.947 14.841-4.947 19.787-4.947v0l123.671 64.309c19.787-9.894 44.522-19.787 64.309-29.681l39.575-133.565c0-9.894 9.894-14.841 19.787-14.841h113.778c9.894 0 14.841 4.947 19.787 14.841v0l39.575 133.565c24.734 9.894 44.522 19.787 69.256 29.681l118.725-64.309c4.947-4.947 14.841-4.947 19.787 4.947l79.15 79.15c4.947 4.947 4.947 14.841 4.947 19.787v0l-64.309 118.725c9.894 24.734 24.734 44.522 29.681 74.203l133.565 39.575c9.894 0 14.841 9.894 14.841 14.841v108.831c-14.841 9.894-19.787 14.841-24.734 19.787zM989.372 405.952l-138.512-39.575c-9.894-34.628-24.734-69.256-44.522-103.884l69.256-123.671-59.362-59.362-123.671 69.256c-29.681-19.787-64.309-34.628-98.937-39.575l-39.575-138.512h-84.097l-39.575 138.512c-34.628 9.894-69.256 24.734-98.937 39.575l-128.618-69.256-54.415 59.362 69.256 128.618c-19.787 29.681-29.681 64.309-39.575 93.99l-138.512 39.575v89.043l138.512 39.575c4.947 34.628 19.787 69.256 39.575 98.937l-69.256 123.671 59.362 59.362 128.618-69.256c24.734 19.787 59.362 34.628 93.99 44.522l39.575 138.512h84.097l39.575-138.512c34.628-9.894 69.256-24.734 103.884-44.522l123.671 69.256 59.362-59.362-69.256-123.671c14.841-29.681 29.681-64.309 39.575-98.937l138.512-39.575v-84.097z" />
<glyph unicode="&#x68;" glyph-name="help" data-tags="help" d="M512-64c-282.347 0-512 229.653-512 512s229.653 512 512 512c282.347 0 512-229.653 512-512s-229.653-512-512-512zM512 904.649c-251.793 0-456.649-204.855-456.649-456.649s204.855-456.649 456.649-456.649c251.793 0 456.649 204.855 456.649 456.649s-204.855 456.649-456.649 456.649zM445.412 360.766v24.022c0 11.015 1.162 21.034 3.432 30s5.757 17.491 10.406 25.628 10.572 15.941 17.934 23.635 16.218 15.609 26.569 23.856c9.078 7.14 16.771 13.506 23.026 19.096s11.347 11.181 15.222 16.716 6.698 11.292 8.413 17.325 2.546 13.063 2.546 21.089c0 12.343-4.151 22.473-12.454 30.499s-20.923 12.011-38.026 12.011c-14.945 0-30.997-3.155-48.156-9.41s-34.982-13.949-53.359-23.026l-33.1 71.68c9.299 5.424 19.428 10.517 30.333 15.388s22.251 9.188 34.041 12.952 23.746 6.753 35.812 8.912 24.022 3.266 35.702 3.266c22.030 0 41.956-2.657 59.669-7.971s32.768-13.008 45.056-23.192 21.864-22.473 28.451-36.975 9.853-31.052 9.853-49.595c0-13.616-1.494-25.794-4.539-36.477s-7.472-20.646-13.395-29.834-13.395-18.045-22.362-26.569-19.484-17.546-31.329-27.067c-9.078-7.14-16.439-13.34-22.196-18.653s-10.24-10.351-13.506-15.111-5.48-9.686-6.642-14.779-1.771-11.070-1.771-17.989v-19.484h-85.629zM434.674 249.842c0 10.185 1.439 18.764 4.373 25.794s6.974 12.675 12.177 17.048 11.292 7.472 18.321 9.41 14.557 2.934 22.528 2.934c7.583 0 14.779-0.996 21.587-2.934s12.786-5.092 17.989-9.41 9.299-10.019 12.343-17.048 4.539-15.609 4.539-25.794c0-9.742-1.494-18.045-4.539-24.963s-7.14-12.675-12.343-17.214-11.181-7.805-17.989-9.853-14.004-3.1-21.587-3.1c-8.026 0-15.498 1.052-22.528 3.1s-13.118 5.369-18.321 9.908-9.244 10.295-12.177 17.214-4.373 15.166-4.373 24.908z" />
<glyph unicode="&#x69;" glyph-name="image" data-tags="image" horiz-adv-x="1517" d="M1151.54 822.649c0-75.857-61.494-137.351-137.351-137.351s-137.351 61.494-137.351 137.351c0 75.857 61.494 137.351 137.351 137.351s137.351-61.494 137.351-137.351zM1516.992-64l-472.144 496.671-192.537-192.537-322.529 327.435-529.782-631.569z" />
<glyph unicode="&#x6a;" glyph-name="idp" data-tags="idp" d="M870.4-64h-716.8c-87.040 0-153.6 66.56-153.6 153.6v716.8c0 87.040 66.56 153.6 153.6 153.6h716.8c87.040 0 153.6-66.56 153.6-153.6v-716.8c0-87.040-66.56-153.6-153.6-153.6zM153.6 898.56c-51.2 0-92.16-40.96-92.16-92.16v-716.8c0-51.2 40.96-92.16 92.16-92.16h716.8c51.2 0 92.16 40.96 92.16 92.16v716.8c0 51.2-40.96 92.16-92.16 92.16h-716.8zM138.24 627.2h81.92v-373.76h-81.92v373.76zM476.16 289.28v0c-20.48-30.72-46.080-40.96-81.92-40.96-81.92 0-122.88 71.68-122.88 143.36s40.96 138.24 117.76 138.24c30.72 0 61.44-15.36 81.92-40.96v0 138.24h71.68v-373.76h-66.56v35.84zM409.6 478.72c-46.080 0-66.56-40.96-66.56-87.040 0-40.96 20.48-87.040 66.56-87.040 51.2 0 61.44 40.96 61.44 87.040 5.12 46.080-10.24 87.040-61.44 87.040zM609.28 627.2h168.96c92.16 0 128-56.32 128-117.76s-35.84-117.76-128-117.76h-87.040v-133.12h-81.92v368.64zM691.2 453.12h61.44c35.84 0 71.68 10.24 71.68 56.32s-35.84 56.32-71.68 56.32h-61.44v-112.64z" />
<glyph unicode="&#x6b;" glyph-name="link" data-tags="link" d="M950.093 886.296c-98.483 98.248-258.172 98.272-356.631 0.072l-214.361-213.797c-1.292-1.289-2.369-2.673-3.589-3.985 24.334 5.178 49.146 7.231 73.91 6.348l178.016 177.547c79.701 79.515 208.954 79.491 288.702-0.048 79.725-79.515 79.748-208.427 0.048-287.918l-214.361-213.797c-79.701-79.515-208.954-79.467-288.702 0.048-42.973 42.86-62.569 100.061-59.243 156.165-9.092-5.871-17.73-12.696-25.698-20.642l-20.984-20.929c6.388-54.243 30.244-106.863 71.972-148.457 98.483-98.248 258.172-98.272 356.631-0.072l214.361 213.797c98.483 98.2 98.435 257.444-0.072 355.668zM396.554 43.497c-79.727-79.49-208.959-79.466-288.71 0.072-79.727 79.514-79.75 208.426-0.048 287.917l214.367 213.796c79.703 79.49 208.959 79.466 288.71-0.048 42.974-42.859 62.57-100.061 59.245-156.165 9.092 5.87 17.73 12.696 25.698 20.642l20.984 20.929c-6.389 54.219-30.244 106.838-71.974 148.457-98.486 98.247-258.178 98.271-356.64 0.072l-214.367-213.796c-98.462-98.2-98.414-257.443 0.072-355.69 98.486-98.223 258.178-98.247 356.64-0.048l214.367 213.796c1.292 1.289 2.369 2.673 3.589 3.985-24.334-5.178-49.147-7.231-73.912-6.348l-178.021-177.571z" />
<glyph unicode="&#x6c;" glyph-name="apps" data-tags="apps" horiz-adv-x="1194" d="M386.194 872.229c-23.406 0-40.96-17.554-40.96-40.96s17.554-40.96 40.96-40.96c23.406 0 40.96 17.554 40.96 40.96s-17.554 40.96-40.96 40.96zM257.463 872.229c-23.406 0-46.811-17.554-46.811-40.96s17.554-40.96 40.96-40.96c23.406 0 40.96 17.554 40.96 40.96 5.851 23.406-11.703 40.96-35.109 40.96zM128.731 872.229c-23.406 0-40.96-17.554-40.96-40.96s17.554-40.96 40.96-40.96c23.406 0 40.96 17.554 40.96 40.96s-17.554 40.96-40.96 40.96zM983.040 234.423v637.806c0 46.811-40.96 87.771-87.771 87.771h-807.497c-46.811 0-87.771-40.96-87.771-87.771v-637.806c0-46.811 40.96-87.771 87.771-87.771h813.349c40.96 0 81.92 40.96 81.92 87.771zM40.96 872.229c0 23.406 17.554 40.96 40.96 40.96h813.349c23.406 0 40.96-17.554 40.96-40.96v-128.731h-895.269v128.731zM40.96 234.423v468.114h895.269v-468.114c0-23.406-17.554-40.96-40.96-40.96h-807.497c-23.406 0-46.811 17.554-46.811 40.96zM1111.771 749.349h-64.366c-11.703 0-23.406-11.703-23.406-23.406s11.703-23.406 23.406-23.406h64.366c23.406 0 40.96-17.554 40.96-40.96v-128.731h-105.326c-11.703 0-23.406-11.703-23.406-23.406s11.703-23.406 23.406-23.406h105.326v-468.114c0-23.406-17.554-40.96-40.96-40.96h-813.349c-23.406 0-40.96 17.554-40.96 40.96v64.366c0 11.703-11.703 23.406-23.406 23.406s-23.406-11.703-23.406-23.406v-58.514c0-46.811 40.96-87.771 87.771-87.771h813.349c46.811 0 87.771 40.96 87.771 87.771v637.806c-5.851 46.811-40.96 87.771-87.771 87.771z" />
<glyph unicode="&#x6d;" glyph-name="menu" data-tags="menu" horiz-adv-x="1491" d="M1446.175 25.825h-1401.263c-26.947 0-44.912-17.965-44.912-44.912s17.965-44.912 44.912-44.912h1392.281c26.947 0 44.912 17.965 44.912 44.912 8.982 26.947-8.982 44.912-35.93 44.912zM44.912 870.175h1392.281c26.947 0 44.912 17.965 44.912 44.912s-8.982 44.912-35.93 44.912h-1401.263c-26.947 0-44.912-17.965-44.912-44.912s17.965-44.912 44.912-44.912zM1446.175 492.912h-1401.263c-26.947 0-44.912-17.965-44.912-44.912s17.965-44.912 44.912-44.912h1392.281c26.947 0 44.912 17.965 44.912 44.912 8.982 26.947-8.982 44.912-35.93 44.912z" />
<glyph unicode="&#x6e;" glyph-name="undo" data-tags="undo" horiz-adv-x="859" d="M429.609 795.218c-5.885 0-5.885 0-11.77 0v147.126c0 11.77-5.885 17.655-17.655 17.655 0 0-5.885 0-5.885-5.885v0l-258.943-158.897c-5.885-5.885-5.885-11.77-5.885-17.655s5.885-11.77 5.885-17.655v0l253.057-164.782c0 0 5.885-5.885 11.77-5.885 11.77 0 17.655 5.885 17.655 17.655v153.011c5.885 0 5.885 0 11.77 0 217.747 0 394.299-176.552 394.299-394.299s-176.552-394.299-394.299-394.299-394.299 176.552-394.299 394.299c0 11.77-5.885 17.655-17.655 17.655s-17.655-5.885-17.655-17.655c0-235.402 194.207-429.609 429.609-429.609s429.609 194.207 429.609 429.609c0 235.402-194.207 429.609-429.609 429.609z" />
<glyph unicode="&#x6f;" glyph-name="overview" data-tags="overview" d="M788.135 586.067l63.281 34.517c11.506 11.506 11.506 23.011 5.753 28.764-5.753 11.506-17.258 11.506-23.011 5.753l-63.281-34.517c-11.506-5.753-11.506-17.258-5.753-23.011 5.753-11.506 17.258-11.506 23.011-11.506zM189.843 655.101c-11.506 5.753-17.258 0-23.011-5.753s-5.753-17.258 5.753-23.011l63.281-34.517c11.506-5.753 17.258 0 23.011 5.753 5.753 11.506 0 17.258-5.753 23.011l-63.281 34.517zM512 741.393c11.506 0 17.258 5.753 17.258 17.258v74.787c0 11.506-5.753 17.258-17.258 17.258s-17.258-5.753-17.258-17.258v-74.787c0-11.506 5.753-17.258 17.258-17.258zM218.607 448c0 11.506-5.753 17.258-17.258 17.258h-74.787c-11.506 0-17.258-5.753-17.258-17.258s5.753-17.258 17.258-17.258h74.787c11.506 0 17.258 5.753 17.258 17.258zM235.865 309.933l-63.281-34.517c-11.506-5.753-11.506-17.258-5.753-23.011 5.753-11.506 17.258-11.506 23.011-5.753l63.281 34.517c11.506 5.753 11.506 17.258 5.753 23.011s-17.258 11.506-23.011 5.753zM788.135 309.933c-11.506 5.753-17.258 0-23.011-5.753-5.753-11.506 0-17.258 5.753-23.011l63.281-34.517c11.506-5.753 17.258 0 23.011 5.753 5.753 11.506 0 17.258-5.753 23.011l-63.281 34.517zM891.685 465.258h-74.787c-11.506 0-17.258-5.753-17.258-17.258s5.753-17.258 17.258-17.258h74.787c11.506 0 17.258 5.753 17.258 17.258s-5.753 17.258-17.258 17.258zM512 960c-281.888 0-512-230.112-512-512s230.112-512 512-512 512 230.112 512 512c0 281.888-230.112 512-512 512zM512-23.73c-109.303 0-207.101 34.517-287.64 97.798 74.787 74.787 172.584 120.809 287.64 120.809s212.854-46.022 287.64-120.809c-80.539-63.281-178.337-97.798-287.64-97.798zM828.404 97.079c-80.539 80.539-189.843 132.315-316.404 132.315s-235.865-51.775-316.404-132.315c-97.798 86.292-161.079 212.854-161.079 356.674 0 264.629 212.854 471.73 471.73 471.73 264.629 0 471.73-212.854 471.73-471.73 5.753-143.82-51.775-270.382-149.573-356.674zM678.831 643.596l-132.315-132.315c-11.506 5.753-23.011 11.506-34.517 11.506-40.27 0-74.787-34.517-74.787-74.787s34.517-74.787 74.787-74.787c40.27 0 74.787 34.517 74.787 74.787 0 11.506-5.753 28.764-11.506 34.517l132.315 132.315c5.753 5.753 5.753 17.258 0 23.011-5.753 11.506-17.258 11.506-28.764 5.753zM512 413.483c-23.011 0-34.517 17.258-34.517 34.517s17.258 34.517 34.517 34.517c23.011 0 34.517-17.258 34.517-34.517s-17.258-34.517-34.517-34.517zM333.663 787.416c-5.753 11.506-17.258 11.506-23.011 11.506-11.506-5.753-11.506-17.258-5.753-28.764l34.517-63.281c5.753-5.753 17.258-11.506 23.011-5.753 11.506 5.753 11.506 17.258 5.753 23.011l-34.517 63.281zM684.584 787.416l-34.517-63.281c-5.753-11.506 0-17.258 5.753-23.011 11.506-5.753 17.258 0 23.011 5.753l34.517 63.281c5.753 11.506 0 17.258-5.753 23.011s-17.258 5.753-23.011-5.753z" />
<glyph unicode="&#x70;" glyph-name="approve" data-tags="approve" horiz-adv-x="1438" d="M1426.697 954.247c-11.506 11.506-28.764 11.506-40.27 0l-874.427-943.461-460.225 477.483c-11.506 11.506-28.764 11.506-40.27 0s-17.258-28.764-5.753-40.27l483.236-500.494c0 0 0 0 0 0s0 0 0 0 5.753 0 5.753-5.753c0 0 0 0 5.753 0s5.753 0 11.506 0 5.753 0 11.506 0c0 0 0 0 5.753 0 0 0 5.753 0 5.753 5.753 0 0 0 0 0 0s0 0 0 0l897.438 966.472c5.753 11.506 5.753 28.764-5.753 40.27z" />
<glyph unicode="&#x71;" glyph-name="support" data-tags="support" horiz-adv-x="1090" d="M689.968 89.326h-284.749v109.519c-93.091 49.283-158.802 153.326-158.802 262.845 0 164.278 131.422 301.176 301.176 301.176 164.278 0 301.176-131.422 301.176-301.176 0-109.519-60.235-208.086-153.326-262.845v-109.519zM459.979 144.086h175.23v87.615l16.428 5.476c87.615 38.332 142.374 125.947 142.374 219.037 0 136.898-109.519 246.417-246.417 246.417s-246.417-109.519-246.417-246.417c0-93.091 54.759-180.706 142.374-219.037l16.428-5.476v-87.615zM394.267-9.241h306.652v-54.759h-306.652v54.759zM547.594 850.481c-16.428 0-27.38 10.952-27.38 27.38v54.759c0 16.428 10.952 27.38 27.38 27.38s27.38-10.952 27.38-27.38v-54.759c0-16.428-16.428-27.38-27.38-27.38zM219.037 713.583c-5.476 0-16.428 0-21.904 5.476l-32.856 43.807c-10.952 10.952-10.952 27.38 0 38.332s27.38 10.952 38.332 0l38.332-38.332c10.952-10.952 10.952-27.38 0-38.332-5.476-10.952-10.952-10.952-21.904-10.952zM87.615 390.503h-60.235c-16.428 0-27.38 10.952-27.38 27.38s10.952 27.38 27.38 27.38h60.235c16.428 0 27.38-10.952 27.38-27.38s-16.428-27.38-27.38-27.38zM870.674 713.583c-5.476 0-16.428 0-21.904 5.476-10.952 10.952-10.952 27.38 0 38.332l38.332 38.332c10.952 10.952 27.38 10.952 38.332 0s10.952-27.38 0-38.332l-38.332-38.332c0-5.476-10.952-5.476-16.428-5.476zM1062.332 390.503h-54.759c-16.428 0-27.38 10.952-27.38 27.38s10.952 27.38 27.38 27.38h54.759c16.428 0 27.38-10.952 27.38-27.38s-10.952-27.38-27.38-27.38z" />
<glyph unicode="&#x72;" glyph-name="resend" data-tags="resend" d="M999.266 470.261c-14.841 0-24.734-9.894-24.734-24.734 0-257.237-207.768-465.005-465.005-465.005s-465.005 207.768-465.005 465.005c4.947 257.237 212.715 465.005 469.952 465.005 173.14 0 326.493-93.99 405.643-247.343h-217.662c-14.841 0-24.734-9.894-24.734-24.734s9.894-24.734 24.734-24.734h262.184c0 0 0 0 0 0s0 0 4.947 0 9.894 4.947 14.841 4.947c0 0 0 4.947 4.947 4.947 0 0 0 0 0 4.947s0 4.947 0 9.894v262.184c0 14.841-9.894 24.734-24.734 24.734s-29.681-14.841-29.681-24.734v-163.246c-93.99 138.512-252.29 222.609-420.483 222.609-286.918 0-514.473-227.556-514.473-514.473 0-281.971 227.556-514.473 514.473-514.473 281.971 0 514.473 227.556 514.473 514.473-4.947 14.841-14.841 24.734-29.681 24.734z" />
<glyph unicode="&#x73;" glyph-name="search" data-tags="search" d="M1019.147-20.322l-300.891 300.891c63.090 72.796 101.915 169.858 101.915 271.773 0 228.095-184.417 412.512-412.512 412.512-223.242-4.853-407.659-189.27-407.659-417.365s184.417-412.512 412.512-412.512c106.768 0 198.976 38.825 271.773 101.915l300.891-300.891c9.706-9.706 24.265-9.706 33.972 0 9.706 14.559 9.706 33.972 0 43.678zM412.512 188.36c-203.829 0-363.981 160.152-363.981 359.128s160.152 363.981 363.981 363.981c198.976 0 363.981-160.152 363.981-363.981s-165.005-359.128-363.981-359.128z" />
<glyph unicode="&#x74;" glyph-name="admin-account" data-tags="admin-account" horiz-adv-x="1138" d="M1081.242 960h-1024c-31.801 0-57.242-25.441-57.242-57.242v-228.969c0-31.801 25.441-57.242 57.242-57.242v-680.547h1024v680.547c31.801 0 57.242 25.441 57.242 57.242v228.969c0 31.801-25.441 57.242-57.242 57.242zM1024-6.758h-909.516v623.304h909.516v-623.304zM1081.242 673.789h-1024v228.969h1024v-228.969zM451.578 279.453h228.969c63.602 0 114.484 50.882 114.484 114.484s-50.882 114.484-114.484 114.484h-228.969c-63.602 0-114.484-50.882-114.484-114.484s57.242-114.484 114.484-114.484zM451.578 451.18h228.969c31.801 0 57.242-25.441 57.242-57.242s-25.441-57.242-57.242-57.242h-228.969c-31.801 0-57.242 25.441-57.242 57.242s31.801 57.242 57.242 57.242z" />
<glyph unicode="&#x75;" glyph-name="user" data-tags="user" horiz-adv-x="933" d="M932.859-42.555c0 128.67-96.503 171.56-171.56 203.728-21.445 10.723-37.529 16.084-53.613 26.806-10.723 10.723-21.445 16.084-32.168 21.445-42.89 26.806-64.335 37.529-64.335 107.225 0 91.141 75.058 150.115 75.058 150.115l10.723 5.361v5.361c26.806 53.613 10.723 96.503 5.361 117.948 53.613 123.309-10.723 225.173-26.806 241.257-37.529 101.864-112.586 123.309-171.56 123.309-69.696 0-128.67-32.168-128.67-32.168-64.335-26.806-107.225-64.335-134.031-117.948-37.529-91.141-5.361-187.644 10.723-214.45-26.806-75.058 5.361-117.948 5.361-123.309l5.361-5.361c0 0 75.058-58.974 75.058-150.115s-48.251-107.225-112.586-128.67l-10.723-5.361c-69.696-21.445-214.45-69.696-214.45-225.173v-21.445h932.859v21.445zM42.89-21.11c10.723 112.586 123.309 144.754 187.644 166.199l10.723 5.361c64.335 21.445 139.393 48.251 139.393 166.199 0 101.864-75.058 171.56-91.141 182.283-5.361 10.723-16.084 37.529 5.361 85.78l5.361 10.723-5.361 5.361c0 0-48.251 101.864-10.723 193.005 16.084 42.89 53.613 75.058 107.225 96.503 0 0 53.613 26.806 112.586 26.806 64.335 0 107.225-32.168 134.031-101.864v-10.723c0 0 75.058-96.503 21.445-209.089l-5.361-10.723 5.361-10.723c0 0 21.445-37.529 0-80.419-16.084-16.084-91.141-80.419-91.141-182.283 0-91.141 32.168-117.948 80.419-144.754 10.723-5.361 21.445-10.723 32.168-21.445 16.084-10.723 37.529-21.445 58.974-32.168 64.335-26.806 128.67-58.974 144.754-144.754h-841.717z" />
<glyph unicode="&#x76;" glyph-name="dropdown-arrow" data-tags="dropdown-arrow" horiz-adv-x="1759" d="M879.572 176.773l-466.162 467.439 75.335 75.123 390.827-391.892 390.613 391.894 75.439-75.123z" />
<glyph unicode="&#x77;" glyph-name="welcome" data-tags="welcome" d="M419.672 540.328c0 50.361-39.169 95.126-95.126 95.126-50.361 0-95.126-39.169-95.126-95.126 0-50.361 39.169-95.126 95.126-95.126 50.361 5.596 95.126 44.765 95.126 95.126zM279.781 540.328c0 27.978 22.383 50.361 44.765 50.361 27.978 0 44.765-22.383 44.765-44.765 0-27.978-22.383-44.765-44.765-44.765-22.383-5.596-44.765 16.787-44.765 39.169zM721.836 310.907c-5.596 0-5.596 0-11.191-5.596v0c0 0-78.339-67.148-195.847-67.148s-195.847 67.148-195.847 67.148v0c-5.596 0-5.596 5.596-11.191 5.596-16.787 0-27.978-11.191-27.978-22.383s5.596-16.787 11.191-16.787v0c5.596-5.596 83.934-72.743 218.23-72.743 139.891 0 218.23 72.743 218.23 72.743v0c5.596 5.596 11.191 11.191 11.191 16.787 5.596 11.191-5.596 22.383-16.787 22.383zM693.858 635.454c-50.361 0-95.126-39.169-95.126-95.126 0-50.361 39.169-95.126 95.126-95.126 50.361 0 95.126 39.169 95.126 95.126 0 50.361-39.169 95.126-95.126 95.126zM693.858 495.563c-27.978 0-44.765 22.383-44.765 44.765 0 27.978 22.383 44.765 44.765 44.765 27.978 0 44.765-22.383 44.765-44.765 5.596-22.383-16.787-44.765-44.765-44.765zM581.945 960h-145.486c-324.546 0-436.459-111.913-436.459-436.459v-145.486c0-330.142 111.913-436.459 436.459-436.459h145.486c330.142 0 436.459 111.913 436.459 436.459v145.486c5.596 324.546-106.317 436.459-436.459 436.459zM973.639 378.055c0-302.164-89.53-391.694-391.694-391.694h-145.486c-302.164 0-391.694 89.53-391.694 391.694v145.486c0 302.164 89.53 391.694 391.694 391.694h145.486c302.164 0 391.694-89.53 391.694-391.694v-145.486z" />
<glyph unicode="&#x78;" glyph-name="close" data-tags="close" d="M509.944-64c-279.647 0-509.944 230.297-509.944 514.056s230.297 509.944 509.944 509.944 509.944-230.297 509.944-509.944-226.185-514.056-509.944-514.056zM509.944 918.876c-259.084 0-468.819-209.735-468.819-468.819s209.735-468.819 468.819-468.819c259.084 0 468.819 209.735 468.819 468.819 4.112 259.084-205.622 468.819-468.819 468.819zM293.639 697.978l465.266-465.266-29.079-29.079-465.266 465.266 29.079 29.079zM729.826 697.978l29.079-29.079-465.266-465.266-29.079 29.079 465.266 465.266z" />
<glyph unicode="&#x79;" glyph-name="success" data-tags="success" horiz-adv-x="1353" d="M0 396.33l507.303-460.33 845.505 798.532-234.862 225.468-629.431-629.431-272.44 272.44z" />
<glyph unicode="&#x7a;" glyph-name="puzzle" data-tags="puzzle" d="M952.32 545.28c71.68 40.96 87.040 102.4 46.080 168.96-40.96 71.68-102.4 87.040-174.080 46.080-35.84-20.48-51.2-51.2-61.44-76.8l-112.64 189.44c0 10.24-10.24 10.24-20.48 5.12l-199.68-112.64c-10.24 0-10.24-10.24-10.24-15.36s5.12-10.24 10.24-15.36c15.36-5.12 25.6-15.36 30.72-30.72 30.72-51.2 20.48-92.16-35.84-122.88-51.2-30.72-87.040-20.48-122.88 35.84-5.12 10.24-10.24 25.6-10.24 40.96 0 5.12-5.12 10.24-10.24 15.36s-10.24 5.12-15.36 0l-199.68-112.64c-10.24-5.12-15.36-15.36-10.24-20.48l112.64-189.44c-30.72 5.12-61.44 10.24-102.4-10.24-71.68-40.96-87.040-102.4-46.080-168.96 40.96-71.68 102.4-87.040 174.080-46.080 35.84 20.48 51.2 51.2 61.44 76.8l112.64-189.44c5.12-10.24 15.36-10.24 25.6-5.12l215.040 117.76c5.12 5.12 10.24 10.24 10.24 15.36s-5.12 15.36-10.24 15.36c-20.48 10.24-40.96 15.36-51.2 40.96-30.72 51.2-20.48 92.16 35.84 122.88s92.16 20.48 128-30.72c10.24-20.48 10.24-40.96 10.24-66.56 0-5.12 0-15.36 5.12-15.36 5.12-5.12 15.36-5.12 20.48 0l215.040 117.76c10.24 5.12 10.24 15.36 5.12 25.6l-112.64 189.44c15.36-10.24 51.2-15.36 87.040 5.12zM855.040 570.88c-10.24 5.12-25.6 5.12-35.84 5.12-5.12 0-15.36-5.12-15.36-10.24-5.12-5.12-5.12-10.24 0-20.48l122.88-204.8-168.96-92.16c0 15.36-5.12 35.84-15.36 51.2-40.96 71.68-102.4 87.040-174.080 46.080s-87.040-102.4-46.080-168.96c10.24-20.48 25.6-30.72 40.96-40.96l-168.96-92.16-122.88 204.8c-5.12 5.12-10.24 10.24-15.36 10.24s-15.36-5.12-15.36-10.24c-5.12-10.24-10.24-20.48-10.24-30.72-10.24-25.6-15.36-51.2-46.080-66.56-56.32-30.72-92.16-20.48-128 30.72-30.72 51.2-20.48 92.16 35.84 122.88 25.6 15.36 51.2 10.24 81.92 5.12 10.24 0 25.6-5.12 35.84-5.12 5.12 0 15.36 5.12 15.36 10.24 5.12 5.12 5.12 10.24 0 20.48l-122.88 204.8 158.72 92.16c0-10.24 5.12-20.48 15.36-35.84 40.96-71.68 102.4-87.040 174.080-46.080s87.040 102.4 46.080 168.96c-10.24 15.36-15.36 20.48-25.6 30.72l158.72 92.16 122.88-204.8c5.12-10.24 10.24-15.36 15.36-15.36s15.36 5.12 15.36 10.24c5.12 10.24 10.24 20.48 10.24 30.72 10.24 25.6 15.36 51.2 46.080 66.56 56.32 30.72 92.16 20.48 128-30.72 30.72-51.2 20.48-92.16-35.84-122.88-25.6-15.36-51.2-10.24-76.8-5.12z" />
<glyph unicode="&#x7b;" glyph-name="previous" data-tags="previous" horiz-adv-x="782" d="M735.418-64c-18.618 0-27.927 9.309-37.236 18.618l-307.2 493.382 307.2 493.382c9.309 18.618 46.545 27.927 65.164 18.618s27.927-46.545 18.618-65.164l-269.964-437.527 269.964-437.527c9.309-18.618 9.309-46.545-18.618-65.164-9.309-18.618-18.618-18.618-27.927-18.618zM344.436-64c-18.618 0-27.927 9.309-37.236 18.618l-307.2 493.382 307.2 493.382c9.309 18.618 46.545 27.927 65.164 18.618s27.927-46.545 18.618-65.164l-269.964-437.527 269.964-437.527c9.309-18.618 9.309-46.545-18.618-65.164-9.309-18.618-18.618-18.618-27.927-18.618z" />
<glyph unicode="&#x7c;" glyph-name="sort-none" data-tags="sort-none" horiz-adv-x="678" d="M55.351 558.703l304.432 318.27h-41.514l304.432-318.27 55.351 55.351-318.27 318.27-13.838 27.676-345.946-345.946zM622.703 323.459l-304.432-304.432h41.514l-304.432 304.432-55.351-55.351 318.27-304.432 27.676-27.676 13.838 27.676 318.27 304.432z" />
<glyph unicode="&#x7d;" glyph-name="next" data-tags="next" horiz-adv-x="809" d="M487.619-73.752l-78.019 58.514 282.819 458.362-282.819 458.362 78.019 58.514 321.829-516.876zM78.019-73.752l-78.019 58.514 282.819 458.362-282.819 458.362 78.019 58.514 321.829-516.876z" />
<glyph unicode="&#x7e;" glyph-name="slider" data-tags="slider" d="M17.067 812.089h733.867v-73.956c0-22.756 17.067-34.133 34.133-34.133h34.133c22.756 0 34.133 17.067 34.133 34.133v73.956h147.911c11.378 0 17.067 5.689 17.067 17.067s-5.689 17.067-17.067 17.067h-147.911v79.644c0 22.756-17.067 34.133-34.133 34.133h-34.133c-22.756 0-34.133-17.067-34.133-34.133v-73.956h-733.867c-11.378 0-17.067-11.378-17.067-22.756 0-5.689 5.689-17.067 17.067-17.067zM785.067 925.867h34.133v-182.044h-34.133v182.044zM1006.933 465.067h-733.867v73.956c0 22.756-17.067 34.133-34.133 34.133h-39.822c-17.067 0-34.133-11.378-34.133-34.133v-73.956h-147.911c-11.378 0-17.067-5.689-17.067-17.067s5.689-17.067 17.067-17.067h147.911v-73.956c0-22.756 17.067-34.133 34.133-34.133h34.133c22.756 0 34.133 17.067 34.133 34.133v73.956h733.867c17.067 0 22.756 5.689 22.756 17.067s-5.689 17.067-17.067 17.067zM238.933 356.978h-39.822v182.044h34.133l5.689-182.044zM1006.933 83.911h-364.089v73.956c0 22.756-17.067 34.133-34.133 34.133h-39.822c-22.756 0-34.133-17.067-34.133-34.133v-73.956h-512c-11.378 0-17.067-5.689-17.067-17.067s5.689-17.067 17.067-17.067h512v-73.956c0-22.756 17.067-34.133 34.133-34.133h34.133c22.756 0 34.133 17.067 34.133 34.133v73.956h364.089c11.378 0 17.067 5.689 17.067 17.067 5.689 5.689 0 17.067-11.378 17.067zM603.022-29.867h-34.133v182.044h34.133v-182.044z" />
<glyph unicode="&#x7f;" glyph-name="sp" data-tags="sp" d="M870.4-64h-716.8c-87.040 0-153.6 66.56-153.6 153.6v716.8c0 87.040 66.56 153.6 153.6 153.6h716.8c87.040 0 153.6-66.56 153.6-153.6v-716.8c0-81.92-71.68-153.6-153.6-153.6zM153.6 898.56c-51.2 0-92.16-40.96-92.16-92.16v-716.8c0-51.2 40.96-92.16 92.16-92.16h716.8c51.2 0 92.16 40.96 92.16 92.16v716.8c0 51.2-40.96 92.16-92.16 92.16h-716.8zM271.36 401.92c0-51.2 40.96-66.56 81.92-66.56 30.72 0 71.68 10.24 71.68 46.080 0 40.96-56.32 46.080-112.64 61.44-51.2 15.36-107.52 35.84-107.52 102.4 0 76.8 71.68 112.64 138.24 112.64 76.8 0 148.48-35.84 148.48-117.76h-76.8c-5.12 46.080-35.84 56.32-76.8 56.32-25.6 0-56.32-10.24-56.32-40.96s15.36-30.72 112.64-56.32c25.6-5.12 112.64-25.6 112.64-107.52 0-66.56-51.2-117.76-153.6-117.76-81.92 0-158.72 40.96-158.72 133.12h76.8zM552.96 652.8h168.96c92.16 0 128-56.32 128-117.76s-35.84-117.76-128-117.76h-87.040v-133.12h-81.92v368.64zM634.88 478.72h61.44c35.84 0 71.68 10.24 71.68 56.32s-35.84 56.32-71.68 56.32h-61.44v-112.64z" />
<glyph unicode="&#x80;" glyph-name="server" data-tags="server" horiz-adv-x="1078" d="M538.947-64c-296.421 0-538.947 231.747-538.947 512s242.526 512 538.947 512 538.947-231.747 538.947-512c0-280.253-242.526-512-538.947-512zM538.947 900.716c-264.084 0-474.274-204.8-474.274-452.716s215.579-452.716 474.274-452.716 474.274 204.8 474.274 452.716-210.189 452.716-474.274 452.716zM722.189 739.032h-377.263l-156.295-404.211 26.947-161.684h630.568l26.947 161.684-150.905 404.211zM808.421 210.863h-560.505l-10.779 80.842h582.063l-10.779-80.842z" />
<glyph unicode="&#xa1;" glyph-name="globe" data-tags="globe" d="M512 960c-284.444 0-512-227.556-512-512s227.556-512 512-512 512 227.556 512 512-227.556 512-512 512zM392.533 908.8c-45.511-39.822-79.644-102.4-108.089-176.356-39.822 11.378-73.956 34.133-102.4 56.889 56.889 56.889 130.844 96.711 210.489 119.467zM159.289 766.578c34.133-28.444 68.267-51.2 113.778-68.267-22.756-68.267-34.133-147.911-34.133-227.556h-199.111c0 108.089 45.511 216.178 119.467 295.822zM39.822 430.933h199.111c0-85.333 11.378-159.289 34.133-227.556-45.511-17.067-79.644-39.822-113.778-68.267-73.956 73.956-119.467 182.044-119.467 295.822zM182.044 106.667c28.444 22.756 62.578 45.511 102.4 56.889 28.444-73.956 62.578-136.533 108.089-176.356-79.644 22.756-153.6 62.578-210.489 119.467zM494.933-24.178c-73.956 11.378-136.533 91.022-176.356 204.8 51.2 17.067 113.778 28.444 176.356 28.444v-233.244zM494.933 248.889c-68.267 0-130.844-11.378-187.733-34.133-17.067 62.578-28.444 136.533-34.133 216.178h216.178l5.689-182.044zM494.933 465.067h-221.867c0 79.644 11.378 153.6 28.444 216.178 56.889-17.067 119.467-28.444 187.733-34.133l5.689-182.044zM494.933 686.933c-62.578 0-125.156 11.378-176.356 28.444 39.822 113.778 102.4 193.422 176.356 204.8v-233.244zM984.178 465.067h-199.111c0 85.333-11.378 159.289-34.133 227.556 45.511 17.067 79.644 39.822 113.778 68.267 73.956-73.956 119.467-182.044 119.467-295.822zM841.956 789.333c-28.444-22.756-62.578-45.511-102.4-56.889-28.444 73.956-62.578 136.533-108.089 176.356 79.644-22.756 153.6-62.578 210.489-119.467zM529.067 920.178c73.956-11.378 136.533-91.022 176.356-204.8-51.2-17.067-113.778-28.444-176.356-28.444 0 0 0 233.244 0 233.244zM529.067 647.111c68.267 0 130.844 11.378 187.733 34.133 17.067-62.578 28.444-136.533 28.444-216.178h-216.178v182.044zM529.067 430.933h216.178c0-79.644-11.378-153.6-28.444-216.178-56.889 17.067-119.467 28.444-187.733 34.133v182.044zM529.067-24.178v233.244c62.578 0 125.156-11.378 176.356-28.444-39.822-119.467-102.4-193.422-176.356-204.8zM631.467-12.8c45.511 39.822 79.644 102.4 108.089 176.356 39.822-17.067 73.956-34.133 102.4-62.578-56.889-51.2-130.844-91.022-210.489-113.778zM864.711 129.422c-34.133 28.444-68.267 51.2-113.778 68.267 22.756 68.267 34.133 147.911 34.133 227.556h199.111c0-108.089-45.511-216.178-119.467-295.822z" />
<glyph unicode="&#xd0;" glyph-name="progress-2-1" data-tags="progress-2-1" d="M555.886 957.074v-117.029c196.023-23.406 351.086-190.171 351.086-392.046s-155.063-371.566-351.086-392.046v-117.029c263.314 23.406 468.114 242.834 468.114 509.074s-204.8 488.594-468.114 509.074z" />
<glyph unicode="&#xd1;" glyph-name="progress-2-2" data-tags="progress-2-2" d="M468.114 55.954c-196.023 20.48-351.086 187.246-351.086 392.046s155.063 371.566 351.086 392.046v117.029c-260.389-20.48-468.114-242.834-468.114-509.074s207.726-488.594 468.114-512v119.954zM555.886 957.074v-117.029c196.023-23.406 351.086-190.171 351.086-392.046s-155.063-371.566-351.086-392.046v-117.029c263.314 23.406 468.114 242.834 468.114 509.074s-204.8 488.594-468.114 509.074z" />
<glyph unicode="&#xd2;" glyph-name="progress-3-1" data-tags="progress-3-1" d="M555.886 840.046c196.023-23.406 351.086-190.171 351.086-392.046 0-55.589-11.703-105.326-32.183-155.063l102.4-58.514c29.257 64.366 46.811 137.509 46.811 213.577 0 266.24-204.8 488.594-468.114 509.074v-117.029z" />
<glyph unicode="&#xd3;" glyph-name="progress-3-2" data-tags="progress-3-2" d="M833.829 216.869c-73.143-99.474-190.171-163.84-321.829-163.84s-248.686 64.366-321.829 163.84l-102.4-58.514c93.623-134.583 248.686-222.354 424.229-222.354s330.606 87.771 424.229 222.354l-102.4 58.514zM555.886 840.046c196.023-23.406 351.086-190.171 351.086-392.046 0-55.589-11.703-105.326-32.183-155.063l102.4-58.514c29.257 64.366 46.811 137.509 46.811 213.577 0 266.24-204.8 488.594-468.114 509.074v-117.029z" />
<glyph unicode="&#xd4;" glyph-name="progress-3-3" data-tags="progress-3-3" d="M149.211 292.937c-20.48 46.811-32.183 99.474-32.183 155.063 0 204.8 155.063 371.566 351.086 392.046v117.029c-260.389-20.48-468.114-242.834-468.114-509.074 0-76.069 17.554-149.211 46.811-213.577l102.4 58.514zM833.829 216.869c-73.143-99.474-190.171-163.84-321.829-163.84s-248.686 64.366-321.829 163.84l-102.4-58.514c93.623-134.583 248.686-222.354 424.229-222.354s330.606 87.771 424.229 222.354l-102.4 58.514zM555.886 840.046c196.023-23.406 351.086-190.171 351.086-392.046 0-55.589-11.703-105.326-32.183-155.063l102.4-58.514c29.257 64.366 46.811 137.509 46.811 213.577 0 266.24-204.8 488.594-468.114 509.074v-117.029z" />
<glyph unicode="&#xd5;" glyph-name="progress-4-1" data-tags="progress-4-1" d="M555.886 840.046c181.394-20.48 324.754-163.84 348.16-342.309h117.029c-23.406 242.834-219.429 438.857-465.189 459.337v-117.029z" />
<glyph unicode="&#xd6;" glyph-name="progress-4-2" data-tags="progress-4-2" d="M906.971 409.966c-17.554-184.32-163.84-333.531-348.16-354.011v-117.029c248.686 20.48 447.634 222.354 465.189 471.040h-117.029zM555.886 840.046c181.394-20.48 324.754-163.84 348.16-342.309h117.029c-23.406 242.834-219.429 438.857-465.189 459.337v-117.029z" />
<glyph unicode="&#xd7;" glyph-name="progress-4-3" data-tags="progress-4-3" d="M468.114 55.954c-184.32 20.48-333.531 169.691-351.086 354.011h-117.029c20.48-251.611 219.429-450.56 468.114-473.966v119.954zM906.971 409.966c-17.554-184.32-163.84-333.531-348.16-354.011v-117.029c248.686 20.48 447.634 222.354 465.189 471.040h-117.029zM555.886 840.046c181.394-20.48 324.754-163.84 348.16-342.309h117.029c-23.406 242.834-219.429 438.857-465.189 459.337v-117.029z" />
<glyph unicode="&#xd8;" glyph-name="progress-4-4" data-tags="progress-4-4" d="M119.954 497.737c23.406 178.469 166.766 321.829 348.16 342.309v117.029c-245.76-20.48-441.783-213.577-465.189-459.337h117.029zM468.114 55.954c-184.32 20.48-333.531 169.691-351.086 354.011h-117.029c20.48-251.611 219.429-450.56 468.114-473.966v119.954zM906.971 409.966c-17.554-184.32-163.84-333.531-348.16-354.011v-117.029c248.686 20.48 447.634 222.354 465.189 471.040h-117.029zM555.886 840.046c181.394-20.48 324.754-163.84 348.16-342.309h117.029c-23.406 242.834-219.429 438.857-465.189 459.337v-117.029z" />
<glyph unicode="&#xd9;" glyph-name="progress-5-1" data-tags="progress-5-1" d="M871.863 611.84l111.177 35.109c-70.217 169.691-234.057 295.497-427.154 310.126v-117.029c140.434-14.629 260.389-105.326 315.977-228.206z" />
<glyph unicode="&#xda;" glyph-name="progress-5-2" data-tags="progress-5-2" d="M778.24 155.429l70.217-96.549c108.251 93.623 178.469 231.131 178.469 386.194 0 40.96-5.851 78.994-14.629 117.029l-111.177-35.109c5.851-26.331 8.777-52.663 8.777-78.994-2.926-117.029-52.663-219.429-131.657-292.571zM871.863 611.84l111.177 35.109c-70.217 169.691-234.057 295.497-427.154 310.126v-117.029c140.434-14.629 260.389-105.326 315.977-228.206z" />
<glyph unicode="&#xdb;" glyph-name="progress-5-3" data-tags="progress-5-3" d="M708.023 102.766c-58.514-32.183-122.88-52.663-196.023-52.663-70.217 0-137.509 20.48-196.023 52.663l-70.217-93.623c76.069-46.811 166.766-73.143 263.314-73.143s187.246 26.331 263.314 73.143l-64.366 93.623zM778.24 155.429l70.217-96.549c108.251 93.623 178.469 231.131 178.469 386.194 0 40.96-5.851 78.994-14.629 117.029l-111.177-35.109c5.851-26.331 8.777-52.663 8.777-78.994-2.926-117.029-52.663-219.429-131.657-292.571zM871.863 611.84l111.177 35.109c-70.217 169.691-234.057 295.497-427.154 310.126v-117.029c140.434-14.629 260.389-105.326 315.977-228.206z" />
<glyph unicode="&#xdc;" glyph-name="progress-5-4" data-tags="progress-5-4" d="M125.806 526.994l-111.177 35.109c-8.777-38.034-14.629-76.069-14.629-117.029 0-155.063 70.217-292.571 178.469-386.194l70.217 96.549c-81.92 73.143-131.657 175.543-131.657 292.571 0 26.331 2.926 52.663 8.777 78.994zM708.023 102.766c-58.514-32.183-122.88-52.663-196.023-52.663-70.217 0-137.509 20.48-196.023 52.663l-70.217-93.623c76.069-46.811 166.766-73.143 263.314-73.143s187.246 26.331 263.314 73.143l-64.366 93.623zM778.24 155.429l70.217-96.549c108.251 93.623 178.469 231.131 178.469 386.194 0 40.96-5.851 78.994-14.629 117.029l-111.177-35.109c5.851-26.331 8.777-52.663 8.777-78.994-2.926-117.029-52.663-219.429-131.657-292.571zM871.863 611.84l111.177 35.109c-70.217 169.691-234.057 295.497-427.154 310.126v-117.029c140.434-14.629 260.389-105.326 315.977-228.206z" />
<glyph unicode="&#xdd;" glyph-name="progress-5-5" data-tags="progress-5-5" d="M152.137 611.84c55.589 122.88 175.543 213.577 315.977 231.131v117.029c-193.097-17.554-354.011-143.36-427.154-313.051l111.177-35.109zM125.806 526.994l-111.177 35.109c-8.777-38.034-14.629-76.069-14.629-117.029 0-155.063 70.217-292.571 178.469-386.194l70.217 96.549c-81.92 73.143-131.657 175.543-131.657 292.571 0 26.331 2.926 52.663 8.777 78.994zM708.023 102.766c-58.514-32.183-122.88-52.663-196.023-52.663-70.217 0-137.509 20.48-196.023 52.663l-70.217-93.623c76.069-46.811 166.766-73.143 263.314-73.143s187.246 26.331 263.314 73.143l-64.366 93.623zM778.24 155.429l70.217-96.549c108.251 93.623 178.469 231.131 178.469 386.194 0 40.96-5.851 78.994-14.629 117.029l-111.177-35.109c5.851-26.331 8.777-52.663 8.777-78.994-2.926-117.029-52.663-219.429-131.657-292.571zM871.863 611.84l111.177 35.109c-70.217 169.691-234.057 295.497-427.154 310.126v-117.029c140.434-14.629 260.389-105.326 315.977-228.206z" />
<glyph unicode="&#xde;" glyph-name="progress-6-1" data-tags="progress-6-1" d="M827.977 684.983l102.4 58.514c-84.846 119.954-219.429 201.874-374.491 213.577v-117.029c111.177-11.703 207.726-70.217 272.091-155.063z" />
<glyph unicode="&#xdf;" glyph-name="progress-6-2" data-tags="progress-6-2" d="M871.863 608.914c23.406-49.737 35.109-105.326 35.109-163.84 0-55.589-11.703-105.326-32.183-155.063l102.4-58.514c29.257 64.366 46.811 137.509 46.811 213.577 0 78.994-17.554 155.063-49.737 222.354l-102.4-58.514zM827.977 684.983l102.4 58.514c-84.846 119.954-219.429 201.874-374.491 213.577v-117.029c111.177-11.703 207.726-70.217 272.091-155.063z" />
<glyph unicode="&#xe0;" glyph-name="progress-6-3" data-tags="progress-6-3" d="M833.829 216.869c-64.366-87.771-163.84-149.211-277.943-163.84v-117.029c157.989 14.629 295.497 99.474 377.417 222.354l-99.474 58.514zM871.863 608.914c23.406-49.737 35.109-105.326 35.109-163.84 0-55.589-11.703-105.326-32.183-155.063l102.4-58.514c29.257 64.366 46.811 137.509 46.811 213.577 0 78.994-17.554 155.063-49.737 222.354l-102.4-58.514zM827.977 684.983l102.4 58.514c-84.846 119.954-219.429 201.874-374.491 213.577v-117.029c111.177-11.703 207.726-70.217 272.091-155.063z" />
<glyph unicode="&#xe1;" glyph-name="progress-6-4" data-tags="progress-6-4" d="M468.114 55.954c-114.103 11.703-213.577 73.143-277.943 160.914l-102.4-58.514c84.846-122.88 222.354-207.726 380.343-222.354v119.954zM833.829 216.869c-64.366-87.771-163.84-149.211-277.943-163.84v-117.029c157.989 14.629 295.497 99.474 377.417 222.354l-99.474 58.514zM871.863 608.914c23.406-49.737 35.109-105.326 35.109-163.84 0-55.589-11.703-105.326-32.183-155.063l102.4-58.514c29.257 64.366 46.811 137.509 46.811 213.577 0 78.994-17.554 155.063-49.737 222.354l-102.4-58.514zM827.977 684.983l102.4 58.514c-84.846 119.954-219.429 201.874-374.491 213.577v-117.029c111.177-11.703 207.726-70.217 272.091-155.063z" />
<glyph unicode="&#xe2;" glyph-name="progress-6-5" data-tags="progress-6-5" horiz-adv-x="1033" d="M475.257 56.338c-115.024 12.232-214.013 72.168-278.094 159.353l-0.77 1.098-102.689-58.725c86.249-124.565 222.675-209.143 379.408-224.462l2.145-0.17zM842.048 216.79c-65.295-88.571-163.808-149.399-276.81-164.084l-2.054-0.218v-116.488c157.896 14.387 293.548 98.673 377.209 221.265l1.135 1.763-99.48 58.725zM880.236 609.895c22.1-47.076 34.998-102.234 34.998-160.404 0-1.371-0.007-2.739-0.021-4.107l0.002 0.209c-0.181-56.273-11.969-109.745-33.091-158.214l1 2.576 102.689-58.725c29.58 63.292 46.84 137.422 46.84 215.583 0 80.574-18.342 156.864-51.078 224.922l1.35-3.115-102.689-58.725zM835.951 687.233l102.689 58.725c-85.457 120.551-219.876 201.552-373.666 213.926l-1.79 0.116v-117.45c112.053-12.323 208.588-70.15 272.046-154.319l0.721-0.998zM152.429 288.993c-22.297 47.258-35.313 102.654-35.313 161.089 0 1.13 0.005 2.258 0.015 3.386l-0.001-0.173c0.191 56.274 11.977 109.745 33.091 158.217l-1.001-2.579-102.368 57.762c-29.58-63.292-46.84-137.422-46.84-215.583 0-80.574 18.342-156.864 51.078-224.922l-1.35 3.115 102.689 59.688z" />
<glyph unicode="&#xe3;" glyph-name="progress-6-6" data-tags="progress-6-6" horiz-adv-x="1030" d="M473.92 56c-114.701 12.197-213.411 71.965-277.312 158.905l-0.768 1.095-102.4-58.56c86.007-124.214 222.049-208.555 378.341-223.831l2.139-0.169zM839.68 216c-65.111-88.322-163.348-148.979-276.031-163.623l-2.049-0.217v-116.16c157.452 14.347 292.722 98.395 376.148 220.642l1.132 1.758-99.2 58.56zM877.76 608c22.038-46.943 34.9-101.946 34.9-159.953 0-1.367-0.007-2.732-0.021-4.095l0.002 0.208c-0.181-56.114-11.935-109.437-32.997-157.769l0.997 2.569 102.4-58.56c29.496 63.114 46.708 137.036 46.708 214.977 0 80.347-18.29 156.422-50.934 224.289l1.347-3.106-102.4-58.56zM833.6 685.12l102.4 58.56c-85.217 120.212-219.257 200.985-372.615 213.324l-1.785 0.116v-117.12c111.738-12.288 208.001-69.953 271.281-153.885l0.719-0.995zM190.080 679.040c65.111 88.322 163.348 148.979 276.031 163.623l2.049 0.217v117.12c-157.793-14.734-293.207-99.357-376.455-222.208l-1.145-1.792 99.52-56.96zM152 288c-22.234 47.125-35.213 102.365-35.213 160.636 0 1.127 0.005 2.252 0.015 3.376l-0.001-0.172c0.19 56.116 11.943 109.436 32.998 157.772l-0.998-2.572-102.080 57.6c-29.496-63.114-46.708-137.036-46.708-214.977 0-80.347 18.29-156.422 50.934-224.289l-1.347 3.106 102.4 59.52z" />
<glyph unicode="&#x2200;" glyph-name="sort-desc" data-tags="sort-desc" horiz-adv-x="1767" d="M1626.353 960l-823.216-803.137h140.549l-803.137 803.137-140.549-140.549 883.451-883.451 60.235 80.314 823.216 803.137z" />
<glyph unicode="&#xe900;" glyph-name="details" data-tags="details" horiz-adv-x="1182" d="M228.431 329.846h716.8c7.877 0 23.631 7.877 23.631 23.631 0 7.877-7.877 23.631-23.631 23.631h-716.8c-7.877 0-23.631-7.877-23.631-23.631 7.877-15.754 15.754-23.631 23.631-23.631zM228.431 495.262h716.8c7.877 0 23.631 7.877 23.631 23.631s-7.877 23.631-23.631 23.631h-716.8c-7.877 0-23.631-7.877-23.631-23.631s15.754-23.631 23.631-23.631zM228.431 156.554h716.8c7.877 0 23.631 7.877 23.631 23.631 0 7.877-7.877 23.631-23.631 23.631h-716.8c-7.877 0-23.631-7.877-23.631-23.631 7.877-15.754 15.754-23.631 23.631-23.631zM1094.892 960h-1008.246c-47.262 0-86.646-39.385-86.646-86.646v-842.831c0-47.262 39.385-86.646 86.646-86.646h1016.123c47.262 0 86.646 39.385 86.646 86.646v842.831c-7.877 47.262-47.262 86.646-94.523 86.646zM1142.154 30.523c0-23.631-15.754-39.385-39.385-39.385h-1016.123c-23.631 0-39.385 15.754-39.385 39.385v677.415h1094.892v-677.415zM1142.154 747.323h-1102.769v126.031c0 23.631 15.754 39.385 39.385 39.385h1016.123c23.631 0 39.385-15.754 39.385-39.385v-126.031z" />
<glyph unicode="&#xe901;" glyph-name="certificate" data-tags="certificate" horiz-adv-x="1117" d="M539.927 354.909v-204.8h-502.691c-18.618 0-37.236 18.618-37.236 37.236v716.8c0 18.618 18.618 37.236 37.236 37.236h1033.309c18.618 0 37.236-18.618 37.236-37.236v-716.8c0-18.618-18.618-37.236-37.236-37.236h-139.636v204.8c46.545 46.545 83.782 121.018 83.782 195.491 0 158.255-121.018 279.273-279.273 279.273-111.709 0-204.8-65.164-251.345-158.255h-344.436v-83.782h325.818c0-9.309 0-27.927 0-37.236s0-27.927 0-37.236h-325.818v-83.782h344.436c18.618-27.927 37.236-55.855 55.855-74.473zM875.055 308.364v-335.127l-139.636 130.327-139.636-130.327v335.127c37.236-27.927 93.091-37.236 139.636-37.236s102.4 9.309 139.636 37.236zM539.927 271.127v74.473h-400.291v-83.782h400.291zM539.927 745.891v83.782h-400.291v-83.782h400.291zM735.418 326.982c-121.018 0-223.418 102.4-223.418 223.418s102.4 223.418 223.418 223.418 223.418-102.4 223.418-223.418-102.4-223.418-223.418-223.418z" />
<glyph unicode="&#xe902;" glyph-name="group" data-tags="group" horiz-adv-x="1097" d="M1097.143 448c0 7.314-7.314 14.629-14.629 14.629v0 0 0l-248.686 109.714 248.686 109.714c7.314 0 14.629 7.314 14.629 14.629s-7.314 14.629-14.629 14.629v0 0c0 0 0 0 0 0l-526.629 248.686c0 0-7.314 0-7.314 0s-7.314 0-7.314 0v0l-526.629-234.057c0 0 0 0 0 0v0 0c-7.314-7.314-14.629-14.629-14.629-21.943s7.314-14.629 14.629-14.629v0 0 0l248.686-109.714-248.686-109.714c-7.314-7.314-14.629-14.629-14.629-21.943s7.314-14.629 14.629-14.629v0 0 0l248.686-109.714-248.686-109.714c-7.314 0-14.629-7.314-14.629-14.629s7.314-14.629 14.629-14.629v0 0 0l526.629-234.057c0 0 7.314 0 7.314 0s7.314 0 7.314 0v0l526.629 234.057c7.314 0 14.629 7.314 14.629 14.629s-7.314 14.629-14.629 14.629v0 0 0l-248.686 109.714 248.686 109.714c7.314 0 14.629 7.314 14.629 14.629zM65.829 704l482.743 212.114 482.743-212.114-482.743-212.114-482.743 212.114zM1031.314 199.314l-482.743-212.114-482.743 212.114 241.371 102.4 234.057-102.4c0 0 7.314 0 7.314 0s7.314 0 7.314 0v0l234.057 102.4 241.371-102.4zM548.571 235.886l-482.743 212.114 241.371 102.4 234.057-102.4c0 0 7.314 0 7.314 0s7.314 0 7.314 0v0l234.057 102.4 241.371-102.4-482.743-212.114z" />
<glyph unicode="&#xe903;" glyph-name="books" data-tags="books" horiz-adv-x="1315" d="M356.324 753.124c-159.827-94.789-293.362-177.124-297.514-183.351-4.151-6.919-4.151-13.146 0-17.297 4.151-3.459 139.070-84.411 300.281-179.892 178.508-105.859 298.205-172.281 304.432-170.205 5.535 2.076 142.53 82.335 303.049 177.816 213.103 125.924 292.67 176.432 291.286 184.735-2.076 11.762-582.573 359.784-600.562 360.476-5.535 0-141.146-77.492-300.973-172.281zM932.67 724.757c145.297-85.795 262.919-158.443 262.227-161.903-1.384-2.768-122.465-77.492-269.838-164.67l-268.454-159.135-267.070 158.443c-147.373 87.87-268.454 161.903-269.838 165.362-2.768 8.303 524.454 321.038 538.292 318.962 6.227-0.692 130.076-71.265 274.681-157.059zM61.578 468.757c-7.611-4.843-7.611-9.686-2.076-18.681 9.686-15.222 581.189-354.941 597.103-354.941 10.378 0 568.735 326.573 593.643 346.638 12.454 10.378 11.070 24.908-2.076 29.751-6.227 2.768-117.622-59.503-295.438-164.67-157.059-93.405-288.519-170.205-291.978-171.589-4.151-1.384-131.459 71.265-283.676 161.211-325.881 192.346-302.357 179.892-315.503 172.281zM58.119 354.595c-2.768-6.227-0.692-15.222 4.843-20.065 25.6-24.216 589.492-350.789 599.87-348.022 6.227 1.384 142.53 80.951 302.357 175.741 220.022 130.768 290.595 175.741 290.595 186.119 0 6.919-4.843 13.838-11.070 15.222-5.535 0.692-139.070-74.724-296.822-168.13-157.059-93.405-288.519-169.514-291.286-169.514s-131.459 75.416-286.443 166.746c-154.984 92.022-287.827 168.822-294.746 170.205-8.303 2.076-14.53-0.692-17.297-8.303z" />
<glyph unicode="&#xe904;" glyph-name="as" data-tags="as" d="M115.068 947.332c-49.089-13.196-91.843-55.423-104.511-103.984-3.695-13.196-5.278-157.823-4.223-406.961 1.584-367.373 2.111-387.959 11.612-405.377 19.002-35.365 40.643-57.534 70.73-72.313l30.087-14.779h786.474l26.92 14.252c29.559 15.835 53.839 40.643 71.786 74.425l12.14 22.169v395.876c0 377.93-0.528 396.932-10.029 414.351-19.002 35.365-40.643 57.534-70.73 72.313l-30.087 14.779-382.68 1.056c-297.171 1.056-387.959-0.528-407.489-5.806zM905.237 885.047c21.641-11.612 37.476-29.559 47.505-52.784 6.862-17.419 7.918-67.035 7.918-385.32 0-343.621-1.056-366.845-10.029-386.903-10.557-24.28-36.421-48.033-57.534-54.367-18.474-4.751-743.72-4.751-762.194 0-21.113 6.334-46.977 30.087-57.534 54.367-8.973 20.058-10.029 43.282-10.029 387.959s1.056 367.901 10.029 387.959c11.085 24.808 36.948 48.561 57.534 53.311 7.918 1.584 16.891 3.695 19.53 4.751 3.167 1.056 170.491 1.584 372.124 1.056 330.425-1.056 368.429-2.111 382.68-10.029zM685.658 648.577c-70.73-12.14-109.262-61.229-97.649-124.041 5.806-31.142 40.643-61.229 93.427-81.287 24.28-9.501 50.672-19.53 58.062-22.169 37.476-14.779 48.033-47.505 22.169-68.091-12.668-10.029-20.058-11.085-48.561-9.501-28.503 2.111-35.365 4.223-45.922 16.891-6.862 7.918-12.668 20.058-12.668 27.447 0 12.14-1.056 12.668-39.588 12.668h-39.588v-14.252c0.528-40.643 39.588-85.509 86.565-99.233 31.142-9.501 84.454-10.029 116.124-2.111 28.503 6.862 60.173 32.726 69.674 55.423 17.946 42.755 1.584 96.594-36.421 122.986-12.14 8.445-44.338 23.225-71.786 32.726-26.92 10.029-54.895 23.225-61.757 29.559-27.975 25.864-5.278 61.757 39.588 61.757 31.67 0 52.784-12.668 57.006-33.781 2.639-15.835 3.167-15.835 41.699-15.835 36.948 0 39.060 0.528 39.060 12.14-0.528 17.419-17.946 52.256-34.837 68.091-29.031 26.92-83.926 39.588-134.598 30.614zM259.167 473.336c-35.893-96.594-66.507-178.936-67.563-182.103-2.111-5.278 7.918-6.862 39.588-6.862h42.755l11.612 36.948 12.14 37.476 126.153-3.167 23.225-68.619 86.037-3.167-7.918 20.058c-4.223 11.085-34.837 92.371-68.091 181.047l-60.173 160.99-72.313 3.167-65.452-175.769zM399.043 431.109c2.639-8.445-1.056-9.501-36.948-9.501-22.169 0-40.115 1.584-40.115 3.695 0 2.639 8.445 30.087 19.53 62.285l19.002 58.062 17.946-52.784c9.501-28.503 18.474-56.478 20.586-61.757z" />
<glyph unicode="&#xe905;" glyph-name="earth" data-tags="earth" d="M625.701 346.715c-34.176 17.573 17.097 17.573-68.37 52.718s-136.759 0-136.759-52.718c0-105.435 68.37-123.008 68.37-123.008-17.097-87.863 0-123.008 17.097-140.581s28.727-43.721 44.16-35.145 24.21 123.008 75.502 175.707 34.194 105.454 0 123.026zM837.797 741.285c-47.141 52.315-106.551 93.111-173.861 117.998-1.298-3.255-2.981-6.345-5.65-8.997-18.286-18.286-54.857-73.143 18.286-73.143 0 0-36.571-109.714 18.286-109.714 47.634 0 95.305 96.384 142.939 73.856zM493.714 576c73.143 36.571 54.857 54.857 91.429 54.857s36.571 73.143-36.571 73.143-36.571-91.429-91.429-36.571 18.286 36.571 54.857 73.143-36.571 54.857-54.857 18.286c0 0-54.857 54.857-91.429-36.571 0 0-72.759 43.703-98.926 89.71-36.736-24.795-69.339-55.168-97.024-89.637 15.506-8.101 32.494-19.474 49.664-36.645 54.857-54.857 18.286-109.714 0-146.286s54.857-91.429 54.857-91.429 54.857-36.571 109.714-54.857c0 0 36.571 18.286-36.571 54.857 0 0-54.857 54.857 18.286 73.143 54.857 18.286 18.286-36.571 54.857-36.571s0 54.857 73.143 91.429zM870.638 700.398c11.648-48.878-102.638-47.707-102.638-160.969 0-92.069 103.845-164.992 169.070-198.802 8.686 34.414 13.787 70.254 13.787 107.374 0 94.043-29.842 180.955-80.219 252.398zM512 960c-282.77 0-512-229.23-512-512s229.23-512 512-512 512 229.23 512 512-229.23 512-512 512zM512-27.429c-262.565 0-475.429 212.864-475.429 475.429s212.864 475.429 475.429 475.429 475.429-212.864 475.429-475.429-212.864-475.429-475.429-475.429z" />
<glyph unicode="&#xe906;" glyph-name="device" data-tags="device" horiz-adv-x="666" d="M628.659 813.699h-591.663v73.178c0 20.187 16.585 36.534 36.996 36.534h517.67c20.412 0 36.996-16.347 36.996-36.534v-73.178zM36.996 118.89v658.274h591.663v-658.274h-591.663zM628.659 9.178c0-20.187-16.585-36.589-36.996-36.589h-517.67c-20.412 0-36.996 16.402-36.996 36.589v73.123h591.663v-73.123zM591.663 960h-517.67c-40.823 0-73.993-32.749-73.993-73.123v-877.699c0-40.374 33.169-73.178 73.993-73.178h517.67c40.823 0 73.937 32.804 73.937 73.178v877.699c0 40.374-33.114 73.123-73.937 73.123zM369.796 886.877h-73.937c-10.261 0-18.526-8.174-18.526-18.322 0-10.094 8.265-18.267 18.526-18.267h73.937c10.261 0 18.47 8.174 18.47 18.267 0 10.148-8.209 18.322-18.47 18.322zM332.8-9.144c20.412 0 36.996 16.402 36.996 36.589s-16.585 36.589-36.996 36.589c-20.412 0-36.941-16.402-36.941-36.589s16.529-36.589 36.941-36.589z" />
<glyph unicode="&#xe907;" glyph-name="radar" data-tags="radar" d="M1005.714 466.286c-10.112 0-18.286-8.192-18.286-18.286 0-262.565-212.864-475.429-475.429-475.429s-475.429 212.864-475.429 475.429 212.864 475.429 475.429 475.429c95.305 0 183.881-28.343 258.286-76.617l-105.362-149.723c-44.544 27.392-96.805 43.483-152.923 43.483-161.591 0-292.571-130.999-292.571-292.571 0-161.591 130.981-292.571 292.571-292.571s292.571 130.981 292.571 292.571c0 10.094-8.174 18.286-18.286 18.286s-18.286-8.192-18.286-18.286c0-141.385-114.615-256-256-256s-256 114.615-256 256 114.615 256 256 256c48.311 0 93.312-13.623 131.858-36.864l-106.149-150.839c-7.973 3.109-16.622 4.846-25.71 4.846-40.393 0-73.143-32.75-73.143-73.143s32.75-73.143 73.143-73.143 73.143 32.75 73.143 73.143c0 9.070-1.865 17.664-4.882 25.673l435.785 307.090c4.681 3.291 7.954 8.485 7.954 14.665 0 5.047-2.048 9.618-5.358 12.928l-146.286 146.286c-3.31 3.31-7.881 5.358-12.928 5.358-6.181 0-11.374-3.273-14.683-7.973l-0.274 0.201-53.12-75.483c-80.366 52.462-176.201 83.255-279.351 83.255-282.77 0-512-229.23-512-512s229.23-512 512-512 512 229.23 512 512c0 10.094-8.174 18.286-18.286 18.286zM512 411.429c-20.187 0-36.571 16.384-36.571 36.571s16.384 36.571 36.571 36.571 36.571-16.384 36.571-36.571-16.384-36.571-36.571-36.571z" />
<glyph unicode="&#xe908;" glyph-name="clipboard" data-tags="clipboard" horiz-adv-x="731" d="M694.857 850.286h-146.286v36.571c0 20.187-16.384 36.571-36.571 36.571h-128v18.286c0 10.112-8.174 18.286-18.286 18.286s-18.286-8.174-18.286-18.286v-18.286h-128c-20.187 0-36.571-16.384-36.571-36.571v-36.571h-146.286c-20.187 0-36.571-16.384-36.571-36.571v-841.143c0-20.187 16.384-36.571 36.571-36.571h658.286c20.187 0 36.571 16.384 36.571 36.571v841.143c0 20.187-16.384 36.571-36.571 36.571zM219.429 886.857h292.571v-109.714h-292.571v109.714zM694.857-27.429h-83.858l83.858 83.858v-83.858zM694.857 108.142l-135.57-135.57h-522.715v841.143h146.286v-36.571c0-20.187 16.384-36.571 36.571-36.571h292.571c20.187 0 36.571 16.384 36.571 36.571v36.571h146.286v-705.573zM109.714 502.857c0-10.112 8.174-18.286 18.286-18.286h475.429c10.112 0 18.286 8.174 18.286 18.286 0 10.094-8.174 18.286-18.286 18.286h-475.429c-10.112 0-18.286-8.192-18.286-18.286zM128 374.857h365.714c10.112 0 18.286 8.174 18.286 18.286s-8.174 18.286-18.286 18.286h-365.714c-10.112 0-18.286-8.174-18.286-18.286s8.174-18.286 18.286-18.286zM603.429 301.714h-475.429c-10.112 0-18.286-8.192-18.286-18.286 0-10.112 8.174-18.286 18.286-18.286h475.429c10.112 0 18.286 8.174 18.286 18.286 0 10.094-8.174 18.286-18.286 18.286z" />
<glyph unicode="&#xe909;" glyph-name="fingerprint" data-tags="fingerprint" horiz-adv-x="973" d="M898.186 107.314c-2.135 0-4.328 0.289-6.463 0.923-12.407 3.52-19.505 16.504-15.985 28.911 65.151 225.518 7.502 475.561 6.867 478.1-31.277 124.3-112.99 217.785-236.251 270.067-11.83 5.078-17.37 18.812-12.349 30.642 5.020 11.888 18.755 17.37 30.585 12.407 137.227-58.284 228.288-162.733 263.373-302.095 2.597-10.964 61.227-264.47-7.386-502.106-2.943-10.214-12.234-16.85-22.39-16.85zM92.208 582.944c-1.616 0-3.289 0.173-4.905 0.577-12.638 2.712-20.659 15.061-17.947 27.642 20.89 97.351 74.961 185.816 152.23 249.178 78.366 64.285 177.39 99.66 278.839 99.66 24.872 0 49.859-2.077 74.269-6.232 12.695-2.135 21.236-14.196 19.101-26.949-2.193-12.695-14.254-21.236-26.891-19.043-21.813 3.636-44.203 5.598-66.478 5.598-90.657 0-179.179-31.681-249.293-89.099-69.133-56.726-117.491-135.842-136.13-222.863-2.366-10.964-12.061-18.466-22.794-18.466zM106.156 97.96c-6.694 0-13.33 2.885-18.004 8.425-8.194 9.926-6.809 24.641 3.116 32.893 93.254 77.212 139.593 196.087 118.010 302.845-21.525 106.527 5.713 177.852 8.425 184.604 44.665 116.452 158.232 194.702 282.705 194.702 105.372 0 201.512-53.61 257.257-143.401l0.404-0.75c3.001-5.194 72.48-128.975 57.245-314.098-1.096-12.869-12.349-22.39-25.16-21.294-12.869 1.039-22.448 12.292-21.351 25.102 13.734 166.657-47.435 280.339-51.013 286.86-47.262 75.711-128.455 120.953-217.381 120.953-105.372 0-201.512-66.305-239.194-165.041l-0.289-0.635c-0.231-0.519-25.045-63.073-5.944-157.77 24.987-123.377-27.584-259.969-133.937-348.029-4.386-3.636-9.637-5.367-14.888-5.367zM517.512-64c-3.809 0-7.617 0.981-11.195 2.943-11.311 6.117-15.408 20.313-9.233 31.681 4.443 8.021 9.002 16.273 13.676 24.698 53.263 95.793 119.511 215.073 119.511 375.151 0 155-22.448 199.492-25.853 205.378l-2.251 1.904 0.173 1.212c-21.813 35.951-59.38 57.418-100.467 57.418-48.531 0-92.966-31.45-110.451-78.25l-0.231-0.577c0 0-10.272-27.122-3.636-68.671 0.346-2.251 0.75-4.559 1.27-6.925 2.424-12.638-5.771-24.929-18.408-27.411s-24.872 5.771-27.411 18.408c-0.577 2.885-1.039 5.771-1.5 8.541-8.483 52.802 4.155 87.83 6.348 93.254 24.295 64.747 86.214 108.258 154.019 108.258 56.957 0 108.893-29.257 139.419-78.308 33.874-42.53 35.663-202.204 35.663-234.232 0-172.197-69.537-297.305-125.397-397.83-4.674-8.367-9.175-16.504-13.619-24.525-4.213-7.733-12.176-12.118-20.428-12.118zM219.682 11.348c-6.232 0-12.465 2.481-17.023 7.386-8.829 9.406-8.31 24.179 1.096 32.951 124.243 116.048 148.71 251.024 147.383 343.759-0.173 12.926 10.156 23.487 23.025 23.66 12.811 0.289 23.429-10.041 23.66-22.967 1.154-83.675-18.293-244.099-162.214-378.556-4.501-4.155-10.214-6.232-15.927-6.232zM697.534-36.162c-4.039 0-8.079 1.039-11.772 3.232-11.080 6.463-14.831 20.774-8.367 31.854 0.808 1.385 54.591 95.793 80.789 277.339 1.847 12.753 13.676 21.582 26.43 19.736 12.695-1.789 21.582-13.619 19.736-26.372-27.699-191.99-84.252-290.149-86.675-294.247-4.328-7.444-12.118-11.541-20.14-11.541zM358.086-44.334c-5.424 0-10.849 1.847-15.235 5.713-9.752 8.425-10.849 23.14-2.366 32.893 200.589 231.635 142.42 515.032 141.785 517.86-2.712 12.58 5.309 24.987 17.889 27.757 12.58 2.712 24.987-5.251 27.699-17.889 0.692-3.116 16.735-78.366 6.117-184.892-9.81-98.275-45.184-242.83-158.232-373.362-4.617-5.367-11.137-8.079-17.658-8.079zM23.341 208.809c-6.348 0-12.638 2.539-17.254 7.617-8.714 9.522-7.964 24.295 1.558 32.951 70.979 64.574 69.075 141.381 61.573 181.43-3.636 19.563-7.56 82.001-7.964 89.041-0.808 12.811 8.945 23.891 21.813 24.698s23.948-9.002 24.756-21.871c1.096-18.351 4.617-69.19 7.271-83.329 15.754-84.367-12.003-166.195-76.057-224.479-4.501-4.097-10.099-6.059-15.696-6.059z" />
<glyph unicode="&#xe90a;" glyph-name="beaker" data-tags="beaker" d="M420.571 338.286c-40.393 0-73.143-32.75-73.143-73.143s32.75-73.143 73.143-73.143 73.143 32.75 73.143 73.143-32.75 73.143-73.143 73.143zM420.571 228.571c-20.187 0-36.571 16.384-36.571 36.571s16.384 36.571 36.571 36.571 36.571-16.384 36.571-36.571-16.384-36.571-36.571-36.571zM731.429 546.962v303.323h54.857c10.112 0 18.286 8.174 18.286 18.286v73.143c0 10.112-8.174 18.286-18.286 18.286h-548.571c-10.112 0-18.286-8.174-18.286-18.286v-73.143c0-10.112 8.174-18.286 18.286-18.286h54.857v-303.323c-42.624-42.277-292.571-297.417-292.571-464.677 0-80.786 65.499-146.286 146.286-146.286h731.429c80.786 0 146.286 65.499 146.286 146.286 0 167.259-249.947 422.4-292.571 464.677zM256 886.857v36.571h512v-36.571h-512zM694.857 850.286v-140.489c-91.246-55.131-165.705-2.194-172.343 2.816-8.759 7.753-65.646 51.346-193.371 11.922v125.751h365.714zM877.714-27.429h-731.429c-60.581 0-109.714 49.134-109.714 109.714 0 160.146 272.11 429.513 286.72 443.867 3.566 3.346 5.851 8.009 5.851 13.275v146.944c121.326 40.869 168.393-0.128 168.649-0.347l1.499-1.335c0.677-0.512 46.464-35.803 112.384-35.803 25.253 0 53.449 5.266 83.2 19.547v-129.006c0-5.266 2.286-9.929 5.851-13.275 14.574-14.336 286.702-283.703 286.702-443.867 0-60.581-49.134-109.714-109.714-109.714zM585.143 192c-30.299 0-54.857-24.576-54.857-54.857 0-30.299 24.558-54.857 54.857-54.857s54.857 24.558 54.857 54.857c0 30.281-24.558 54.857-54.857 54.857zM585.143 118.857c-10.112 0-18.286 8.174-18.286 18.286 0 10.094 8.174 18.286 18.286 18.286s18.286-8.192 18.286-18.286c0-10.112-8.174-18.286-18.286-18.286zM530.286 594.286c-60.581 0-109.714-49.134-109.714-109.714s49.134-109.714 109.714-109.714 109.714 49.134 109.714 109.714-49.134 109.714-109.714 109.714zM530.286 411.429c-40.393 0-73.143 32.75-73.143 73.143s32.75 73.143 73.143 73.143 73.143-32.75 73.143-73.143-32.75-73.143-73.143-73.143z" />
<glyph unicode="&#xe90b;" glyph-name="notepad" data-tags="notepad" horiz-adv-x="878" d="M804.571 850.286h-73.143v91.429c0 10.112-8.174 18.286-18.286 18.286s-18.286-8.174-18.286-18.286v-91.429h-73.143v91.429c0 10.112-8.174 18.286-18.286 18.286s-18.286-8.174-18.286-18.286v-91.429h-73.143v91.429c0 10.112-8.174 18.286-18.286 18.286s-18.286-8.174-18.286-18.286v-91.429h-73.143v91.429c0 10.112-8.174 18.286-18.286 18.286-10.094 0-18.286-8.174-18.286-18.286v-91.429h-73.143v91.429c0 10.112-8.174 18.286-18.286 18.286s-18.286-8.174-18.286-18.286v-91.429h-73.143v91.429c0 10.112-8.174 18.286-18.286 18.286s-18.286-8.174-18.286-18.286v-91.429h-73.143c-40.393 0-73.143-32.75-73.143-73.143v-768c0-40.393 32.75-73.143 73.143-73.143h731.429c40.393 0 73.143 32.75 73.143 73.143v768c0 40.393-32.75 73.143-73.143 73.143zM841.143 9.143c0-20.187-16.384-36.571-36.571-36.571h-731.429c-20.187 0-36.571 16.384-36.571 36.571v768c0 20.187 16.384 36.571 36.571 36.571h73.143v-91.429c0-10.112 8.174-18.286 18.286-18.286s18.286 8.174 18.286 18.286v91.429h73.143v-91.429c0-10.112 8.174-18.286 18.286-18.286s18.286 8.174 18.286 18.286v91.429h73.143v-91.429c0-10.112 8.192-18.286 18.286-18.286 10.112 0 18.286 8.174 18.286 18.286v91.429h73.143v-91.429c0-10.112 8.174-18.286 18.286-18.286s18.286 8.174 18.286 18.286v91.429h73.143v-91.429c0-10.112 8.174-18.286 18.286-18.286s18.286 8.174 18.286 18.286v91.429h73.143v-91.429c0-10.112 8.174-18.286 18.286-18.286s18.286 8.174 18.286 18.286v91.429h73.143c20.187 0 36.571-16.384 36.571-36.571v-768zM164.571 301.714h438.857c10.112 0 18.286 8.174 18.286 18.286 0 10.094-8.174 18.286-18.286 18.286h-438.857c-10.112 0-18.286-8.192-18.286-18.286 0-10.112 8.174-18.286 18.286-18.286zM713.143 228.571h-548.571c-10.112 0-18.286-8.174-18.286-18.286s8.174-18.286 18.286-18.286h548.571c10.112 0 18.286 8.174 18.286 18.286s-8.174 18.286-18.286 18.286zM713.143 557.714h-548.571c-10.112 0-18.286-8.192-18.286-18.286 0-10.112 8.174-18.286 18.286-18.286h548.571c10.112 0 18.286 8.174 18.286 18.286 0 10.094-8.174 18.286-18.286 18.286zM713.143 448h-548.571c-10.112 0-18.286-8.192-18.286-18.286 0-10.112 8.174-18.286 18.286-18.286h548.571c10.112 0 18.286 8.174 18.286 18.286 0 10.094-8.174 18.286-18.286 18.286z" />
<glyph unicode="&#xe90c;" glyph-name="terminal" data-tags="terminal" horiz-adv-x="1303" d="M548.538 545.769c5.911 4.236 10.007 10.775 10.007 18.595 0 8.634-4.911 15.872-11.916 19.875l0.186 0.326-325.818 186.182-0.186-0.326c-3.398 1.955-7.145 3.398-11.357 3.398-12.87 0-23.273-10.426-23.273-23.273 0-8.634 4.911-15.872 11.916-19.875l-0.186-0.326 294.284-168.169-296.262-211.619 0.256-0.349c-5.911-4.212-10.007-10.775-10.007-18.572 0-12.87 10.403-23.273 23.273-23.273 5.050 0 9.472 1.955 13.265 4.678l0.256-0.349 325.818 232.727-0.256 0.349zM744.727 308.364h-232.727c-12.87 0-23.273-10.403-23.273-23.273s10.403-23.273 23.273-23.273h232.727c12.87 0 23.273 10.403 23.273 23.273s-10.403 23.273-23.273 23.273zM1210.182 960h-1117.091c-51.409 0-93.091-41.681-93.091-93.091v-837.818c0-51.409 41.681-93.091 93.091-93.091h1117.091c51.409 0 93.091 41.681 93.091 93.091v837.818c0 51.409-41.681 93.091-93.091 93.091zM1256.727 29.091c0-25.693-20.852-46.545-46.545-46.545h-1117.091c-25.693 0-46.545 20.852-46.545 46.545v837.818c0 25.693 20.852 46.545 46.545 46.545h1117.091c25.693 0 46.545-20.852 46.545-46.545v-837.818z" />
</font>
</defs>
</svg>
